<?xml version="1.0" encoding="UTF-8" standalone="no"?>
<!-- Created with Inkscape (http://www.inkscape.org/) -->

<svg
   xmlns:dc="http://purl.org/dc/elements/1.1/"
   xmlns:cc="http://creativecommons.org/ns#"
   xmlns:rdf="http://www.w3.org/1999/02/22-rdf-syntax-ns#"
   xmlns:svg="http://www.w3.org/2000/svg"
   xmlns="http://www.w3.org/2000/svg"
   xmlns:sodipodi="http://sodipodi.sourceforge.net/DTD/sodipodi-0.dtd"
   xmlns:inkscape="http://www.inkscape.org/namespaces/inkscape"
   width="210mm"
   height="297mm"
   viewBox="0 0 744.09448819 1052.3622047"
   id="svg2"
   version="1.1"
   inkscape:version="0.91 r13725"
   sodipodi:docname="lando.svg"
   inkscape:export-filename="/Users/dougtangren/code/web/lando/logo.png"
   inkscape:export-xdpi="90"
   inkscape:export-ydpi="90">
  <defs
     id="defs4" />
  <sodipodi:namedview
     id="base"
     pagecolor="#ffffff"
     bordercolor="#666666"
     borderopacity="1.0"
     inkscape:pageopacity="0.0"
     inkscape:pageshadow="2"
     inkscape:zoom="1"
     inkscape:cx="347.86932"
     inkscape:cy="539.5223"
     inkscape:document-units="px"
     inkscape:current-layer="layer2"
     showgrid="false"
     inkscape:window-width="1304"
     inkscape:window-height="723"
     inkscape:window-x="62"
     inkscape:window-y="1"
     inkscape:window-maximized="1" />
  <metadata
     id="metadata7">
    <rdf:RDF>
      <cc:Work
         rdf:about="">
        <dc:format>image/svg+xml</dc:format>
        <dc:type
           rdf:resource="http://purl.org/dc/dcmitype/StillImage" />
        <dc:title />
      </cc:Work>
    </rdf:RDF>
  </metadata>
  <g
     inkscape:groupmode="layer"
     id="layer2"
     inkscape:label="background"
     style="display:inline">
    <rect
       style="opacity:0.83999999;fill:#ffed00;fill-opacity:1;fill-rule:nonzero;stroke:none;stroke-width:1;stroke-linecap:round;stroke-linejoin:round;stroke-miterlimit:0;stroke-dasharray:none;stroke-dashoffset:10;stroke-opacity:1"
       id="rect3345"
       width="666.56079"
       height="220.53021"
       x="-0.63015747"
       y="432.62573"
       inkscape:export-xdpi="90"
       inkscape:export-ydpi="90"
       inkscape:export-filename="/Users/dougtangren/code/web/lando/logo.png" />
  </g>
  <g
     inkscape:label="text"
     inkscape:groupmode="layer"
     id="layer1"
     style="display:none"
     sodipodi:insensitive="true">
    <text
       xml:space="preserve"
       style="font-style:normal;font-variant:normal;font-weight:normal;font-stretch:normal;font-size:40px;line-height:125%;font-family:'Sketch 3D';-inkscape-font-specification:'Sketch 3D, Normal';text-align:start;letter-spacing:0px;word-spacing:0px;writing-mode:lr-tb;text-anchor:start;fill:#333333;fill-opacity:1;stroke:none;stroke-width:1px;stroke-linecap:butt;stroke-linejoin:miter;stroke-opacity:1"
       x="305.17505"
       y="558.01959"
       id="text3336"
       sodipodi:linespacing="125%"><tspan
         sodipodi:role="line"
         id="tspan3338"
         x="305.17505"
         y="558.01959">ando</tspan></text>
    <text
       xml:space="preserve"
       style="font-style:normal;font-variant:normal;font-weight:normal;font-stretch:normal;font-size:47.61201859px;line-height:125%;font-family:'Sketch 3D';-inkscape-font-specification:'Sketch 3D, Normal';text-align:start;letter-spacing:0px;word-spacing:0px;writing-mode:lr-tb;text-anchor:start;fill:#333333;fill-opacity:1;stroke:none;stroke-width:1px;stroke-linecap:butt;stroke-linejoin:miter;stroke-opacity:1"
       x="172.09595"
       y="-581.60248"
       id="text3340"
       sodipodi:linespacing="125%"
       transform="matrix(0.97863243,-0.18239875,-0.18063894,-0.9881664,0,0)"><tspan
         sodipodi:role="line"
         id="tspan3342"
         x="172.09595"
         y="-581.60248">y</tspan></text>
  </g>
  <g
     id="g4166"
     inkscape:groupmode="layer"
     inkscape:label="text path">
    <g
       style="font-style:normal;font-variant:normal;font-weight:normal;font-stretch:normal;font-size:40px;line-height:125%;font-family:'Sketch 3D';-inkscape-font-specification:'Sketch 3D, Normal';text-align:start;letter-spacing:0px;word-spacing:0px;writing-mode:lr-tb;text-anchor:start;fill:#333333;fill-opacity:1;stroke:none;stroke-width:1px;stroke-linecap:butt;stroke-linejoin:miter;stroke-opacity:1"
       id="text4168"
       inkscape:export-xdpi="90"
       inkscape:export-ydpi="90"
       transform="matrix(4.5961688,0,0,4.5961688,-1238.6994,-1978.3739)"
       inkscape:export-filename="/Users/dougtangren/code/web/lando/logo.png">
      <path
         d="m 322.46021,546.67194 -0.50782,-0.0586 -0.27343,-0.0391 -0.27344,-0.0391 q 0.0391,0.11718 0.11719,0.29297 l 0.0586,0.11718 0.0586,0.13672 0.42969,-0.15625 0.39063,-0.13672 0,-0.11718 z m 1.48437,-0.80079 q -0.60547,-0.60546 -1.5625,-0.2539 l 1.50391,0.42969 0.0586,-0.17579 z m -9.94141,-0.23437 2.42188,0.89844 0.0586,-0.19532 q -0.44922,-0.41015 -1.13281,-0.625 -0.27344,-0.0781 -0.64453,-0.15625 l -0.64453,-0.0976 -0.0586,0.17578 z m 7.10938,1.48437 q -0.23438,0.0195 -0.54688,-0.0586 l -0.2539,-0.0586 -0.27344,-0.0781 q -0.66406,-0.15625 -1.13281,0.11719 0.97656,0.56641 1.28906,0.58594 0.3125,0 0.91797,-0.50782 z m -1.60156,0.91797 q -0.74219,-0.54687 -1.11328,-0.5664 -0.35157,-0.0195 -0.82032,0.48828 0.17578,0.0391 0.48828,0.17578 l 0.23438,0.0977 0.23437,0.0977 q 0.54688,0.15625 0.97657,-0.29297 z m -3.20313,-5.78125 0.0391,-0.17578 q -3.55468,-1.09375 -5.89843,-1.25 l 5.85937,1.42578 z m -0.8789,15.27344 q -0.13672,-0.42969 -0.15625,-0.42969 l -2.34375,-1.11328 -2.36329,-1.11328 q 0.80079,0.85938 2.26563,1.52344 l 0.625,0.29297 0.64453,0.27343 q 0.85938,0.35157 1.32813,0.56641 z m -2.38282,-10.44922 q 0.58594,0.13672 1.3086,0.42969 l 0.625,0.27344 0.625,0.27343 q 1.5625,0.6836 2.55859,0.85938 -0.27344,-0.19531 -0.70312,-0.41016 l -0.35157,-0.17578 -0.35156,-0.19531 -0.33203,-0.21484 -0.33203,-0.23438 q -0.41016,-0.27344 -0.6836,-0.41016 -0.64453,-0.33203 -1.30859,-0.42968 -0.17578,-0.0195 -0.46875,0.0586 l -0.27344,0.0781 -0.3125,0.0977 z m 3.39844,-6.11328 -1.5625,-0.29297 q -1.75781,-0.35156 -3.06641,-0.60547 -0.0586,-0.0195 -0.17578,0.0586 l -0.11718,0.0586 -0.13672,0.0781 0.19531,0.0391 0.17578,0.0391 0.29297,0.0586 1.09375,0.29297 1.09375,0.27344 q 1.28906,0.33203 2.1875,0.625 0.72266,0.23438 1.60156,-0.29297 l -1.58203,-0.33203 z m -5.95703,2.24609 q 1.11328,0.82032 2.75391,1.32813 0.625,0.19531 1.48437,0.41016 l 0.76172,0.17578 0.74219,0.17578 -0.0586,-0.13672 -0.0976,-0.11719 q -0.0977,-0.15625 -0.19532,-0.17578 l -2.69531,-0.83984 -2.69531,-0.82032 z m 6.15234,-3.92578 1.05469,0.17578 0.83984,0.17579 0.85938,0.15625 q 0.99609,0.19531 1.69922,0.39062 0.58594,0.15625 0.66406,0.15625 0.15625,0 0.48828,-0.23437 l -0.82031,-0.23438 -0.80078,-0.23437 q -1.03516,-0.3125 -1.64063,-0.44922 -1.89453,-0.42969 -3.3789,-0.0781 l 1.03515,0.17578 z m -6.89453,13.24219 0.11719,0.0977 0.11719,0.0977 q 0.15625,0.11719 0.2539,0.15625 1.01563,0.44922 2.40235,1.05469 l 1.21093,0.52734 1.25,0.54688 q -0.0391,-0.0781 -0.0586,-0.25391 l -0.0586,-0.27343 q -0.0781,-0.3125 -0.21485,-0.39063 -2.32422,-1.36719 -4.90234,-1.69922 l -0.11719,0.13672 z m 5.3711,4.02344 q -0.0977,-0.82031 -1.79688,-1.81641 -1.66016,-0.97656 -3.47656,-1.34765 -0.0195,0.5664 0.54687,0.78125 0.33203,0.11718 0.80078,0.37109 l 0.39063,0.19531 0.39062,0.21485 q 0.64454,0.3125 1.54297,0.78125 l 0.78125,0.39062 0.82032,0.42969 z m -4.62891,-6.75781 q -0.0391,0.0781 -0.0977,0.27343 l -0.13672,0.3125 1.32813,0.46875 1.28906,0.46875 2.59766,0.9375 0.0586,-0.15625 0.0781,-0.17578 q 0.0976,-0.23437 0.17578,-0.41015 l -2.63672,-0.85938 q -1.60156,-0.50781 -2.65625,-0.85937 z m 2.92969,0.35156 1.32812,0.42969 1.32813,0.41015 q 0.0586,-0.0781 0.2539,-0.41015 l -0.19531,-0.11719 q -0.11719,-0.0781 -0.17578,-0.0977 l -2.10938,-0.78125 q -1.25,-0.46875 -2.08984,-0.80078 -0.68359,-0.29297 -0.95703,0.54688 l 2.61719,0.82031 z m 0.5664,2.14844 -1.28906,-0.48829 -2.53906,-0.97656 q -0.25391,0.72266 -0.19531,0.89844 0.0781,0.19531 0.68359,0.27344 1.89453,0.2539 3.92578,1.38672 0.0977,0.0391 0.25391,0.0977 l 0.29297,0.11719 q 0.0976,-0.50781 0.17578,-0.80078 l -1.3086,-0.50781 z m -1.05468,-12.48047 0.23437,0.0586 q 0.25391,0.0391 0.41016,0.0781 l 2.5,0.46875 2.5,0.46875 q 1.03515,0.21484 1.91406,-0.33204 l -2.92969,-0.5664 q -1.73828,-0.35156 -2.92969,-0.60547 -0.72265,-0.15625 -1.97265,0.39062 l 0.27344,0.0391 z m -0.80079,8.51562 0.29297,0.0977 1.75782,0.66406 q 1.05468,0.39063 1.75781,0.68359 0.64453,0.27344 0.82031,0.23438 0.17578,-0.0391 0.66406,-0.64453 l -2.05078,-0.80078 q -1.21094,-0.48828 -2.03125,-0.82032 -0.9375,-0.41015 -1.54297,0.46875 l 0.33203,0.11719 z m -2.32421,-6.64062 q 0.0781,0.89843 0.76171,1.07422 1.01563,0.2539 2.48047,0.68359 l 2.46094,0.72266 0.17578,0.0391 0.21485,0.0195 q -0.13672,-0.76172 -0.3125,-0.95703 -0.17579,-0.17578 -0.87891,-0.33203 -0.3125,-0.0781 -0.82031,-0.23438 l -0.83985,-0.21484 -1.58203,-0.41016 -0.82031,-0.19531 -0.83984,-0.19531 z m 18.35937,15.82031 0.52734,-0.13672 q 0.625,-0.19531 1.05469,-0.33203 0.11719,-0.0391 0.23438,-0.19531 0.11718,-0.15625 0.13672,-0.27344 0.0195,-0.29297 0,-0.64453 l -0.0391,-0.66406 -0.13672,-2.26563 -0.13671,-2.26562 q -0.15625,-2.69532 -0.35157,-4.55079 -0.2539,-2.63671 -1.99218,-3.98437 -1.75782,-1.34766 -4.35547,-0.95703 -1.05469,0.15625 -2.48047,0.52734 l -1.23047,0.35156 -1.23047,0.33204 q -0.44922,0.11718 -1.13281,0.58593 -0.0977,0.0586 -0.17578,0.23438 -0.0586,0.17578 -0.0391,0.29297 0.15625,0.60547 0.39063,1.48437 l 0.19531,0.74219 0.19531,0.76172 0.29297,-0.17578 0.27344,-0.15625 q 2.40234,-1.38672 4.17969,-1.71875 1.17187,-0.21485 1.97265,0.41015 l 0.19532,0.15625 0.19531,0.13672 q 0.25391,0.17578 0.37109,0.3125 0.3711,0.41016 0.23438,0.97656 -0.0195,0.0391 0.0391,0.11719 l 0.0586,0.0586 0.0391,0.0586 q 0.37109,0.74219 -0.46875,0.76172 l -0.6836,0.0391 q -0.39062,0.0195 -0.66406,0.0781 -1.99219,0.41015 -4.53125,1.95312 -1.99219,1.21094 -2.73437,3.35938 -0.72266,2.1289 0.0976,4.3164 0.72266,1.9336 2.67578,1.97266 3.73047,0.0976 6.77735,-2.96875 0.42968,-0.42969 1.03515,-0.3125 0.50782,0.11719 0.52735,0.74219 0.0195,0.19531 0.0586,0.48828 l 0.0391,0.2539 0.0195,0.25391 0.56641,-0.15625 z m -9.58984,-19.58984 1.99218,0.23437 1.25,0.15625 q 0.70313,0.0977 1.25,0.19531 1.38672,0.27344 2.42188,0.74219 0.33203,0.13672 0.72266,0.46875 l 0.33203,0.29297 0.33203,0.29297 0.13672,0.13672 0.13672,0.15625 q 0.15625,0.19531 0.27343,0.27343 2.26563,1.48438 2.63672,3.67188 0.23438,1.40625 0.44922,3.39844 l 0.19531,1.69922 0.19532,1.69921 0.11718,1.23047 0.11719,1.23047 0,3.53516 -0.13672,0.15625 -0.11719,0.17578 q -0.15625,0.17578 -0.27343,0.21484 -1.67969,0.52735 -3.24219,0.89844 -0.80078,0.19531 -1.26953,0.0391 -1.01563,-0.3125 -2.36328,0.29297 -0.66407,0.3125 -1.67969,0.64453 l -0.83984,0.27344 -0.85938,0.27344 -1.66016,0 -0.39062,-0.15625 -0.41016,-0.15625 q -0.48828,-0.17578 -0.82031,-0.33203 l -1.69922,-0.85938 -1.67969,-0.8789 -0.76171,-0.3711 -0.76172,-0.35156 q -0.91797,-0.42969 -1.48438,-0.78125 -1.99219,-1.23047 -1.91406,-3.63281 0.13672,-4.78516 3.84766,-6.67969 l -0.60547,-0.21484 -0.60547,-0.19532 q -0.6836,-0.2539 -1.15235,-0.42968 -0.3125,-0.11719 -0.44921,-0.42969 l -0.70313,-1.73828 -0.70312,-1.73828 0,-0.70313 0.21484,-0.0977 0.21484,-0.0976 q 0.25391,-0.0977 0.41016,-0.21485 1.64062,-1.13281 3.76953,-1.71875 0.50781,-0.13671 1.25,-0.3125 l 1.25,-0.29296 3.06641,0 z m 2.07031,15.9375 q 0.33203,0.52734 1.01562,0.72265 0.6836,0.17578 1.19141,-0.0781 -1.34766,-0.39063 -2.20703,-0.64453 z m 1.77734,-0.39063 -1.32812,-0.58594 q -0.0391,0.0781 -0.11719,0.21485 l -0.0781,0.13672 q -0.0391,0.0977 -0.0781,0.17578 0.35156,0 0.76172,0.11718 l 0.37109,0.11719 0.33203,0.13672 q 0.89844,0.33203 1.42579,0.25391 l -1.28907,-0.56641 z m 2.71485,-0.68359 q 0.29297,-0.83985 -0.44922,-0.9961 -0.11719,-0.0195 -0.25391,-0.0977 l -0.21484,-0.11719 q -0.50781,-0.29297 -0.74219,-0.27344 -0.23437,0.0195 -0.76172,0.3711 1.28906,0.58593 2.42188,1.11328 z m -2.94922,0 0.70312,0.2539 q 0.80078,0.3125 1.36719,0.50782 0.11719,0.0391 0.35156,-0.0586 l 0.21485,-0.0781 0.2539,-0.0977 q -0.27343,-0.11719 -0.72265,-0.29297 l -0.66407,-0.29297 q -0.76171,-0.33203 -1.25,-0.5664 -0.52734,-0.27344 -0.95703,0.35156 l 0.70313,0.27344 z m 4.14062,-0.46875 q -0.0976,1.58203 -1.07422,2.05078 l -0.80078,0.41015 -0.82031,0.42969 q -0.97656,0.52735 -1.62109,0.80078 -1.34766,0.56641 -2.08985,-0.23437 -0.78125,-0.87891 -0.29297,-2.30469 0.625,-1.875 2.53907,-2.71484 0.625,-0.29297 1.52343,-0.56641 l 0.78125,-0.25391 0.78125,-0.23437 q 0.60547,-0.19531 0.70313,0.46875 l 0.17578,1.07422 0.19531,1.07422 z m -19.49218,-10.82032 q -0.11719,-0.0195 -0.44922,-0.19531 l -0.23438,-0.13672 -0.2539,-0.11718 q -0.60547,-0.21485 -0.76172,0.41015 -0.0391,0.23438 0.19531,0.29297 0.23437,0.0781 0.29297,-0.15625 0.0195,-0.13672 0.48828,0.0977 l 0.19531,0.0781 0.15625,0.0977 q 0.19531,0.0976 0.25391,0.11719 0.0391,0 0.29297,0.0391 l 0.19531,0.0195 0.21484,0.0391 q 0.50782,0.11719 0.42969,0.35156 -0.0391,0.23438 0.19531,0.3125 0.23438,0.0586 0.29297,-0.17578 0.13672,-0.58593 -0.44922,-0.82031 -0.17578,-0.0781 -0.52734,-0.13672 l -0.27344,-0.0586 -0.2539,-0.0586 z m 1.32812,-2.1875 q -0.23437,-0.0391 -0.46875,-0.17578 l -0.21484,-0.13672 -0.21485,-0.15625 q -0.52734,-0.35156 -0.95703,-0.27343 -0.23437,0.0391 -0.17578,0.27343 0.0781,0.25391 0.3125,0.21485 0.19531,-0.0391 0.42969,0.0976 l 0.19531,0.11719 0.17578,0.13672 q 0.46875,0.33203 0.78125,0.37109 0.23438,0.0391 0.3125,-0.19531 0.0586,-0.23437 -0.17578,-0.27344 z m 1.11328,-1.58203 -0.15625,-0.13672 q -0.17578,-0.15625 -0.2539,-0.33203 -0.11719,-0.33203 -0.44922,-0.41015 -0.23438,-0.0586 -0.3125,0.17578 -0.0586,0.23437 0.17578,0.29297 0.0976,0.0391 0.17578,0.17578 l 0.0586,0.11719 0.0586,0.11718 q 0.11718,0.15625 0.29297,0.29297 l 0.17578,0.13672 0.15625,0.11719 q 0.19531,0.15625 0.3125,-0.0586 0.13672,-0.21484 -0.0586,-0.35156 l -0.17578,-0.13672 z m 18.51563,-1.28906 q -0.3711,0.19531 -0.44922,0.82031 l -0.0195,0.27344 -0.0391,0.25391 q -0.0195,0.3125 -0.0781,0.46875 -0.0781,0.23437 0.15625,0.29297 0.23437,0.0781 0.3125,-0.15625 0.0586,-0.15625 0.0977,-0.41016 l 0.0195,-0.19531 0.0195,-0.21485 0,-0.0781 0,-0.0977 0.0391,-0.21484 q 0.0586,-0.25391 0.17578,-0.3125 0.11719,-0.0586 0.13672,-0.15625 0.0195,-0.0977 -0.0391,-0.17578 -0.0391,-0.0977 -0.13672,-0.11719 -0.0977,-0.0391 -0.19531,0.0195 z m 2.61718,1.64063 q -1.44531,0.78125 -1.91406,1.99218 -0.0391,0.11719 0.0195,0.19532 0.0391,0.0781 0.13672,0.0977 0.0977,0.0195 0.19531,0 0.0977,-0.0586 0.13672,-0.15625 0.3711,-0.99609 1.66016,-1.69922 0.11719,-0.0586 0.13672,-0.15625 0,-0.0781 -0.0391,-0.17578 -0.0586,-0.0781 -0.13672,-0.11719 -0.0977,-0.0391 -0.19532,0.0195 z m 0.17579,3.84765 q -0.19532,0.11719 -0.0781,0.33203 0.11719,0.21485 0.33203,0.0977 l 1.28906,-0.72266 q 0.19532,-0.11718 0.0781,-0.33203 -0.0391,-0.0781 -0.13672,-0.11719 -0.0977,-0.0195 -0.19531,0.0195 l -1.28906,0.72265 z"
         id="path4180"
         inkscape:connector-curvature="0" />
      <path
         d="m 354.27661,555.57819 0.15625,-0.44922 0.17578,-0.46875 q 0.21485,-0.54688 0.42969,-0.89844 l 0.0195,0.0586 q -0.27344,0.74219 -0.83984,1.89453 l 0.0586,-0.13671 z m -0.91797,-1.15235 0.23438,-0.42969 0.2539,-0.42968 q 0.29297,-0.50782 0.54688,-0.83985 0.29297,-0.37109 0.46875,-0.66406 l 0,0.76172 q -0.21484,0.19531 -0.0781,0.46875 -0.19531,0.29297 -0.41015,0.76172 l -0.15625,0.39062 -0.17578,0.39063 q -0.0586,0.0976 -0.13672,0.35156 l -0.0586,0.19531 -0.0781,0.19532 q -0.19531,0.46875 -0.44922,0.58593 l 0.0391,-1.73828 z m 0.54688,1.95313 q -0.15625,0.29297 -0.33203,0.72265 l -0.29297,0.74219 0.0391,-1.15234 0,0 q 0.39063,-0.0586 0.64453,-0.42969 l -0.0586,0.11719 z m -1.5625,-9.21875 q 0.13672,-0.13672 0.2539,-0.41016 0.25391,-0.54687 0.64454,-1.19141 0.15625,-0.29296 0.52734,-0.72265 l 0.29297,-0.35156 0.29297,-0.35157 q 0.15625,0.66407 0.27343,1.60157 -0.13671,0.35156 -0.48828,0.91796 l -0.27343,0.46875 -0.25391,0.44922 -0.11719,0.25391 -0.11719,0.23437 q -0.13671,0.29297 -0.27343,0.46875 l -0.13672,0.17579 -0.11719,0.13671 q -0.21484,-0.91796 -0.50781,-1.67968 z m -0.6836,11.71875 q -0.35156,-0.0781 -0.60546,-0.0977 -0.35157,-0.0391 -0.82032,0.0586 l -0.41015,0.0781 -0.41016,0.0781 -0.50781,0.0586 -0.52735,0.0586 q -0.66406,0.0391 -1.03515,0.11719 l 0,-0.0586 0,-0.0195 q -0.0195,-0.72265 0.0195,-1.64062 l 0.0586,-1.66016 q 0.0781,-2.10937 0.0391,-3.28125 0,-0.23437 0,-0.5664 l 0,-0.60547 q 0,-0.74219 -0.0391,-1.23047 -0.13672,-1.46484 -0.72265,-2.22656 -1.07422,-1.38672 -2.85157,-0.87891 -1.26953,0.37109 -2.83203,1.66016 l -0.0781,-0.0195 q -0.3711,-0.0781 -0.54688,0.27343 -0.17578,0.33203 0.0586,0.54688 0.0391,0.13672 0.15625,0.23437 -0.15625,0.58594 -0.0586,4.29688 0.0195,1.17187 0.0781,2.83203 0,0.25391 0.0195,0.60547 l 0,0.29297 0,0.2539 q 0.0195,0.56641 0.0391,0.80078 l 0,0.0195 q -0.11719,-0.0781 -0.2539,-0.0586 -0.39063,0.0195 -1.17188,0.0781 l -0.60547,0.0586 -0.60547,0.0586 q -1.44531,0.0781 -2.40234,-0.15625 l -0.0195,-0.0195 q 0,-0.91797 0.0781,-2.24609 l 0.0977,-2.24609 q 0.13672,-2.73438 -0.0586,-4.51172 -0.13672,-1.44532 -0.23438,-3.41797 l -0.0586,-1.69922 -0.0586,-1.71875 0.3125,-0.0586 0.29297,-0.0781 q 0.3711,-0.0586 0.60547,-0.0781 0.33203,-0.0195 0.9375,0.0586 l 0.46875,0.0391 0.46875,0.0195 0.89844,0 q 0.0976,0 0.21484,0 l 0.0781,0 0.0586,-0.0195 q 0.13672,0 0.17578,0.0195 0.0391,0.0195 0.0586,0.39063 l 0,0.2539 -0.0195,0.23438 q -0.0195,0.3125 0.0195,0.50781 0.0195,0.0977 0.0781,0.27344 l 0.11719,0.27344 q -0.23438,0.27343 0.0391,0.58593 0.25391,0.3125 0.60547,0.13672 0.46875,-0.23437 1.17187,-0.66406 l 0.54688,-0.33203 0.56641,-0.29297 q 1.26953,-0.66406 2.53906,-0.70312 4.08203,-0.0586 5.66406,3.53515 0.95703,2.22656 1.07422,5.83985 0.0391,1.23046 0,3.10546 l -0.0391,1.50391 q -0.0391,0.89844 -0.0391,1.46484 l -0.625,-0.11718 z m -8.24218,-3.88672 -0.27344,0.3125 q -0.33203,0.39062 -0.48828,0.66406 -0.48828,0.74219 -1.03516,1.54297 l -0.0391,-0.89844 q 0.89844,-1.13281 2.08984,-2.30469 l 0.21485,-0.19531 0.21484,-0.21484 0.0391,0.0195 0.0781,0.0391 q -0.0977,0.0391 -0.29297,0.3125 l -0.13672,0.21485 q -0.0781,0.13671 -0.11719,0.17578 l -0.2539,0.33203 z m -1.46485,-5.82031 q 0.3125,-0.29297 0.54688,-0.46875 0.64453,-0.48829 1.21094,-0.625 l 0,0.0977 q -0.44922,0.3125 -1.23047,1.19141 -0.0977,0.13672 -0.25391,0.33203 l -0.23437,0.37109 q -0.3125,0.46875 -0.54688,0.66407 0,-0.625 -0.0195,-1.09375 l 0.52734,-0.46875 z m -0.50781,2.1875 q 0.29297,-0.15625 0.60547,-0.56641 l 0.25391,-0.35156 0.21484,-0.33203 q 0.60547,-0.85938 1.17187,-1.32813 0.0195,0.39063 0.0391,0.95703 l -0.42969,0.56641 -0.44922,0.54687 -0.33203,0.41016 q -0.19531,0.23437 -0.35156,0.39062 -0.0195,0.0391 -0.13672,0.15625 l -0.0977,0.11719 -0.11719,0.0977 q -0.2539,0.27344 -0.41015,0.35156 l 0.0391,-1.01562 z m 0,3.3789 q -0.0586,-0.76172 -0.0391,-1.85547 l 0.0781,-0.0195 q 0.17578,-0.0391 0.33203,-0.17578 l 0.13672,-0.13672 0.11719,-0.13672 q 0.56641,-0.54687 0.85938,-0.89843 l 0.42968,-0.52735 0.42969,-0.52734 q 0.0195,0.2539 0.11719,0.80078 l -0.3125,0.33203 -0.29297,0.33203 q -0.41016,0.41016 -0.58594,0.66406 -0.0781,0.0977 -0.23437,0.33204 l -0.11719,0.19531 -0.13672,0.19531 q -0.33203,0.48828 -0.625,0.56641 -0.0977,0.0195 -0.15625,0.11718 -0.0391,0.0781 0,0.17579 0.0195,0.0977 0.0977,0.13671 0.0781,0.0586 0.19531,0.0391 0.3125,-0.0781 0.64453,-0.44922 0.11719,-0.13672 0.25391,-0.35156 l 0.11718,-0.15625 0.0977,-0.15625 q 0.21484,-0.29297 0.54688,-0.6836 l 0.29296,-0.3125 0.29297,-0.3125 q 0.0977,0.78125 0.0586,1.26953 -0.13672,0.11719 -0.15625,0.29297 l -0.27344,0.23438 -0.25391,0.23437 q -0.3125,0.27344 -0.44922,0.41016 -0.68359,0.72265 -1.36718,1.54297 l -0.0977,-1.17188 z m -5.05859,-13.92578 0.39062,-0.60547 q 0.3125,-0.42969 0.78125,-0.97656 l 0.42969,-0.44922 0.41016,-0.46875 0.0391,0 -0.39063,0.625 -0.37109,0.625 q -0.11719,0.21484 -0.35156,0.52734 l -0.41016,0.50782 q -0.52734,0.66406 -0.66406,1.11328 -0.0195,0.0781 0.0195,0.17578 l -0.35156,0.0391 -0.35157,0.0586 q 0.0781,-0.0977 0.23438,-0.29297 l 0.11719,-0.15625 0.0976,-0.13672 0.3711,-0.58594 z m 3.04687,-2.55859 q -0.48828,0.76172 -0.74219,1.25 l -0.11718,0.2539 -0.0977,0.25391 q -0.13672,0.3125 -0.25391,0.46875 l -0.17578,0.21484 -0.19531,0.17578 q -0.21484,0.23438 -0.33203,0.41016 -0.0781,0.0977 -0.0391,0.19531 0.0195,0.0781 0.11718,0.13672 0.0781,0.0391 0.17579,0.0195 0.0976,0 0.15625,-0.0977 0.0781,-0.0977 0.17578,-0.21485 l 0.19531,-0.19531 q 0.25391,-0.23437 0.35156,-0.39062 0.11719,-0.19532 0.27344,-0.52735 l 0.11719,-0.29297 0.11718,-0.27343 q 0.19532,-0.33204 0.44922,-0.76172 l 0.46875,-0.72266 q 0.3711,-0.0586 0.60547,-0.0781 l 0.21485,0 q -0.13672,0.2539 -0.54688,0.68359 l -0.29297,0.33203 q -0.17578,0.17578 -0.2539,0.29297 -0.13672,0.19531 -0.3125,0.48828 l -0.27344,0.52734 q -0.3711,0.625 -0.6836,0.95704 -0.15625,0.17578 0,0.33203 0.17579,0.17578 0.35157,0.0195 0.35156,-0.3711 0.74218,-1.07422 l 0.3125,-0.54688 q 0.19532,-0.33203 0.35157,-0.5664 0.11718,-0.13672 0.29297,-0.33203 l 0.33203,-0.35157 q 0.39062,-0.44921 0.52734,-0.76171 l 0.3125,0 0.21484,-0.0195 0.23438,-0.0195 q 0.29297,-0.0391 0.44922,-0.0195 -0.11719,0.13672 -0.11719,0.3125 0,0.19531 -0.27344,0.50781 -0.0781,0.0977 -0.21484,0.23438 l -0.0977,0.0977 -0.0976,0.0977 q -0.15625,0.19531 -0.3125,0.44922 l -0.13672,0.23438 -0.15625,0.2539 q -0.0977,0.15625 -0.33203,0.41016 l -0.17578,0.19531 -0.15625,0.19531 -0.13672,0.23438 -0.0977,0.23437 q -0.13672,0.29297 -0.25391,0.42969 l -0.0781,0 q -0.46875,-0.0781 -1.36719,-0.0586 l -0.68359,0.0195 q -0.39063,0 -0.66406,-0.0391 -0.25391,-0.0195 -0.56641,0 0.0781,-0.27344 0.35156,-0.625 l 0.25391,-0.29297 0.21484,-0.27344 q 0.19531,-0.27344 0.41016,-0.625 l 0.19531,-0.33203 0.17578,-0.33203 0.33203,-0.52735 0.35157,-0.52734 0.41015,-0.0391 z m 4.00391,0.46875 q 0.0586,0.15625 0.0781,0.2539 l 0,0.23438 0.0195,0.23437 q 0.0391,0.27344 0.15625,0.41016 -0.0781,0.25391 -0.35156,0.625 l -0.21484,0.3125 -0.19531,0.29297 -0.3711,0.625 q -0.23437,0.39062 -0.39062,0.625 -0.21485,0.33203 -0.58594,0.76172 l -0.33203,0.37109 -0.3125,0.37109 -0.0195,-0.13671 q 0,-0.11719 0,-0.29297 l 0.0195,-0.3125 q 0.0195,-0.3711 -0.0586,-0.60547 0.11719,-0.15625 0.29297,-0.48828 l 0.13672,-0.25391 0.15625,-0.27344 0.19531,-0.27343 0.21485,-0.27344 q 0.2539,-0.33203 0.39062,-0.56641 0.11719,-0.17578 0.29297,-0.41015 l 0.35156,-0.39063 q 0.41016,-0.46875 0.52735,-0.83984 z m 1.13281,1.58203 q 0.25391,0.2539 0.54688,0.0391 0.50781,-0.33203 1.11328,-0.60547 l -0.15625,0.21485 -0.15625,0.19531 q -0.17578,0.23437 -0.25391,0.33203 l -0.27344,0.29297 -0.2539,0.27344 q -0.33203,0.35156 -0.50782,0.58593 l -0.13671,0.19532 -0.13672,0.21484 q -0.17578,0.25391 -0.29297,0.39062 -0.19531,0.23438 -0.19531,0.3125 l -0.0195,0 q -0.0976,-0.15625 -0.29296,-0.0781 -0.19532,0.0586 -0.15625,0.25391 -0.3711,0.17578 -0.76172,0.39062 0.44922,-0.52734 0.68359,-0.91797 l 0.3125,-0.48828 0.35156,-0.52734 q 0.41016,-0.625 0.58594,-1.07422 z m 2.77344,-0.87891 q 0.11719,0 0.19531,-0.0781 0.35156,-0.0781 0.78125,-0.0977 -0.29297,0.35156 -0.70312,0.85938 l -0.6836,0.8789 q -0.11719,0.11719 -0.2539,0.35156 l -0.27344,0.39063 q -0.3125,0.46875 -0.58594,0.68359 l -0.11719,0 q -0.5664,0.0195 -1.11328,0.11719 0.29297,-0.39062 0.72266,-0.89844 l 0.76172,-0.89843 q 0.0391,-0.0391 0.23437,-0.29297 l 0.17578,-0.21485 0.17578,-0.23437 q 0.46875,-0.56641 0.6836,-0.56641 z m 1.66015,-0.17578 q 0.56641,0.0391 1.13282,0.19531 l -0.56641,0.72266 -0.56641,0.74219 -0.68359,0.83984 -0.66406,0.83984 q -0.58594,-0.13671 -1.17188,-0.17578 0.11719,-0.13672 0.33203,-0.44922 l 0.15625,-0.2539 0.17579,-0.21485 0.44921,-0.58593 0.44922,-0.56641 q 0.50782,-0.64453 0.95703,-1.09375 z m 3.06641,1.40625 -0.15625,0.19531 q -0.19531,0.21485 -0.29297,0.35157 -0.29297,0.46875 -0.78125,1.07421 l -0.41015,0.52735 -0.42969,0.52734 q -0.0977,0.11719 -0.0195,0.25391 -0.78125,-0.56641 -1.79688,-0.85938 0.60547,-0.72265 1.01563,-1.28906 l 0.35156,-0.46875 0.35156,-0.46875 q 0.41016,-0.52734 0.76172,-0.89844 0.83984,0.3125 1.5625,0.87891 l -0.15625,0.17578 z m 1.01563,1.28906 q -0.17579,0.19532 -0.25391,0.29297 -0.11719,0.19531 -0.29297,0.54688 l -0.13672,0.27343 -0.15625,0.27344 q -0.29297,0.46875 -0.78125,1.05469 l -0.17578,0.21484 q -0.0977,0.11719 -0.15625,0.21485 l -0.0781,-0.11719 -0.0781,-0.11719 q -0.33203,-0.44922 -0.78125,-0.82031 0.0977,0 0.15625,-0.0781 l 0.99609,-1.23046 q 0.15625,-0.19532 0.44922,-0.625 l 0.19532,-0.3125 0.23437,-0.29297 0.17578,-0.21485 0.17578,-0.21484 q 0.39063,0.35156 0.74219,0.85937 l -0.23437,0.29297 z m 0.52734,0.15625 q 0.3125,0.56641 0.48828,1.09375 l 0.0781,0.29297 q -0.0977,0.19531 -0.29297,0.41016 l -0.33203,0.41015 q -0.46875,0.52735 -0.625,0.78125 l -0.3125,0.48829 q -0.17579,0.29296 -0.27344,0.50781 l -0.0586,0.11719 -0.0391,0.13671 q -0.0586,0.17579 -0.11719,0.27344 -0.3125,-0.72265 -0.68359,-1.30859 0.0586,-0.0586 0.0781,-0.13672 0.0391,-0.19531 0.27343,-0.42969 l 0.17578,-0.19531 0.17579,-0.19531 q 0.39062,-0.46875 0.78125,-1.21094 0.3125,-0.58594 0.625,-0.95703 l 0.0586,-0.0781 z m 1.01562,6.71875 -0.19531,0.23438 q -0.21484,0.27344 -0.3125,0.42969 -0.11719,0.15625 -0.23437,0.39062 l -0.21485,0.41016 q -0.27343,0.54687 -0.46875,0.82031 -0.0976,-0.91797 -0.21484,-1.58203 0.11719,-0.0391 0.13672,-0.15625 0.0586,-0.17578 0.29297,-0.46875 l 0.17578,-0.23438 q 0.0976,-0.13672 0.15625,-0.23437 l 0.13672,-0.25391 0.11718,-0.2539 q 0.17579,-0.35157 0.27344,-0.52735 l 0.23438,-0.39062 0.21484,-0.39063 q 0.0781,0.80078 0.0977,1.97266 l -0.19532,0.23437 z m 0.21485,2.38282 q -0.0977,0.39062 -0.41016,0.83984 l -0.29297,0.39062 -0.29297,0.39063 q -0.21484,0.29297 -0.50781,0.80078 -0.0195,-1.21094 -0.0976,-2.16797 0.0976,0.0586 0.19531,0.0391 0.0976,0 0.15625,-0.0976 0.15625,-0.19531 0.3125,-0.48828 l 0.27344,-0.50782 q 0.35156,-0.68359 0.60546,-0.99609 l 0.0586,-0.0977 0,1.89454 z m 1.01562,1.85546 q -0.0195,-0.54687 0,-1.32812 l 0,-0.68359 0.0195,-0.70313 q 0.0195,-1.81641 -0.0195,-2.89062 l 0,0 0,-0.0195 q -0.19531,-4.66796 -2.08984,-7.01171 -1.5625,-1.91407 -4.27734,-2.16797 -2.61719,-0.23438 -4.7461,1.17187 -0.0391,-0.21484 -0.2539,-0.3125 l 0,0 0,-0.11719 0,-0.11718 q 0,-0.15625 -0.0781,-0.3711 l -0.0781,-0.17578 -0.0586,-0.17578 -0.0976,-0.3125 -0.0977,-0.29297 q -0.13672,-0.35156 -0.33203,-0.5664 -0.15625,-0.15625 -0.35156,-0.13672 -0.19532,0 -0.33204,0.13672 -0.19531,-0.0781 -0.37109,0.0195 -0.3125,-0.0195 -0.83984,0.0195 l -0.41016,0.0195 -0.41016,0.0195 q -0.29296,0 -0.68359,0.0586 l -0.70312,0.0977 q 0.0586,-0.0781 -0.23438,-0.0586 -0.29297,0.0195 -0.39062,0.13672 l -0.39063,0.0391 q -0.13672,-0.15625 -0.33203,-0.13672 l -0.0781,0.0195 q -0.2539,0.0195 -0.39062,0.25391 l -0.46875,0.50781 -0.46875,0.52734 q -0.54688,0.60547 -0.87891,1.07422 -0.17578,0.25391 -0.42968,0.66406 l -0.42969,0.66407 -0.17578,0.23437 -0.17578,0.23438 q -0.19532,0.27343 -0.27344,0.50781 -0.0391,0.13672 0,0.27344 -0.13672,0.13672 -0.13672,0.35156 l 0.0586,1.83594 0.0781,1.83593 q 0.0781,2.08985 0.23437,3.63282 0.17578,1.79687 0.0391,4.60937 l -0.0977,2.30469 q -0.0781,1.34766 -0.0586,2.30469 l 0,0.0977 q 0,0.25391 0.19531,0.39063 0.0976,0.15625 0.3125,0.21484 1.05469,0.3125 2.61719,0.25391 0.46875,-0.0195 1.34765,-0.0977 l 0.66406,-0.0586 0.64454,-0.0586 q 0.2539,0 0.39062,-0.21484 0.21484,0.11719 0.41016,0.0391 0.42968,-0.0391 0.42968,-0.44922 l 0.60547,-0.85937 0.56641,-0.85938 q 0.70312,-1.03515 1.23047,-1.67968 0.0586,-0.0781 0.19531,-0.21485 l 0.0977,-0.11718 0.13672,-0.13672 q 0.3125,-0.33203 0.48828,-0.58594 0.52734,-0.74219 0.19531,-1.21094 -0.0586,-0.0977 -0.17578,-0.15625 0.0195,-0.21484 0.0195,-0.48828 0.0586,-0.13672 0.0977,-0.27344 0.0391,-0.19531 -0.15625,-0.27343 l -0.11719,-0.6836 q -0.0586,-0.42969 -0.0781,-0.72265 l -0.0586,-0.76172 -0.0391,-0.76172 0.0195,-0.0195 q 0.13672,-0.17578 -0.0195,-0.33203 0,-0.56641 0.0391,-0.95704 1.07422,0.21485 1.44531,1.32813 0.13672,0.42969 0.21485,1.05469 l 0.0391,0.54687 0.0195,0.52735 q 0.0586,1.40625 -0.0195,3.98437 l -0.0586,2.01172 q -0.0195,1.11328 0,1.99219 l 0.0195,0.0391 0.0195,0.0586 q -0.21485,0.27344 -0.0586,0.58594 0.17578,0.33203 0.52735,0.19531 0.50781,-0.19531 1.32812,-0.2539 l 0.6836,-0.0586 q 0.41015,-0.0195 0.68359,-0.0586 l 0.39062,-0.0781 0.39063,-0.0781 q 0.44922,-0.0977 0.80078,-0.0586 0.25391,0.0195 0.68359,0.11718 l 0.35157,0.0586 0.35156,0.0586 q 0.0781,0.0391 0.19531,0.0586 0.3711,0.13672 0.60547,-0.17578 0.44922,-0.625 0.89844,-1.67968 l 0.35156,-0.87891 q 0.21484,-0.50781 0.39063,-0.85938 0.8789,-1.8164 1.1914,-2.83203 0.13672,-0.41015 -0.29297,-0.60547 z m -20.72265,-13.98437 q -0.0195,0 -0.0781,-0.0391 l -0.0391,-0.0391 -0.0195,-0.0195 q -0.0781,-0.0391 -0.21485,-0.0586 l -0.2539,0 -0.27344,0.0195 -0.23437,-0.0195 -0.25391,0 q -0.25391,0.0391 -0.42969,0.19531 -0.11719,0.0781 -0.0586,0.23438 0.0391,0.11718 0.17578,0.17578 l 0.0781,0.0195 q 0.21485,0.0781 0.27344,-0.13672 0.11719,-0.0391 0.3711,0 l 0.19531,0.0195 q 0.0976,0 0.15625,0 0.19531,-0.0195 0.37109,0.0781 0.13672,0.0781 0.35156,0.0391 0.23438,-0.0195 0.17579,-0.27344 -0.0586,-0.23437 -0.29297,-0.19531 z m 0.91797,-1.67969 q -0.0977,-0.2539 -0.35157,-0.39062 l -0.23437,-0.11719 -0.25391,-0.0977 q -0.11719,-0.0586 -0.27344,-0.15625 l -0.2539,-0.19531 q -0.3125,-0.23437 -0.60547,-0.21484 -0.0977,0.0195 -0.17578,0.0977 -0.0586,0.0781 -0.0586,0.17578 0,0.0977 0.0586,0.15625 0.0781,0.0781 0.17578,0.0586 0.19531,0 0.42969,0.17578 l 0.19531,0.15625 q 0.0977,0.0977 0.17578,0.13672 0.0586,0.0391 0.17578,0.0781 l 0.21485,0.0586 q 0.2539,0.0781 0.3125,0.21484 0.0781,0.21484 0.3125,0.15625 0.23437,-0.0781 0.15625,-0.29297 z m 1.28906,-1.58203 q -0.0781,-0.0781 -0.15625,-0.25391 l -0.0586,-0.13671 -0.0586,-0.11719 -0.0781,-0.11719 -0.0977,-0.11719 q -0.0781,-0.15625 -0.0977,-0.27343 -0.0391,-0.23438 -0.27343,-0.15625 -0.23438,0.0586 -0.21485,0.29296 0.0195,0.15625 0.13672,0.33204 l 0.0977,0.13671 0.0976,0.15625 0.0781,0.13672 0.0781,0.17578 q 0.0977,0.17579 0.19532,0.29297 0.17578,0.15625 0.35156,-0.0195 0.17578,-0.17578 0,-0.33203 z m 14.29687,-0.74219 q 0.0195,0.0977 -0.0195,0.23438 l -0.0195,0.0976 -0.0391,0.11719 -0.0391,0.29297 -0.0391,0.29297 q -0.0391,0.11719 -0.0586,0.23437 l -0.0977,0.23438 q -0.11718,0.27344 -0.27343,0.35156 -0.0977,0.0586 -0.11719,0.15625 -0.0195,0.0781 0.0391,0.17578 0.0586,0.0781 0.15625,0.0977 0.0977,0.0391 0.19531,-0.0195 0.21485,-0.11719 0.3711,-0.41016 l 0.11718,-0.27344 0.0977,-0.2539 q 0.0391,-0.15625 0.0781,-0.3711 l 0.0195,-0.17578 0.0195,-0.19531 0.0391,-0.15625 0.0391,-0.15625 q 0.0391,-0.17578 0.0195,-0.3125 -0.0391,-0.23437 -0.29296,-0.21484 -0.23438,0.0195 -0.19532,0.2539 z m 2.5,1.38672 -0.17578,0.13672 q -0.23437,0.15625 -0.33203,0.27344 l -0.0781,0.11719 -0.0781,0.13671 q -0.11719,0.15625 -0.48828,0.29297 -0.23438,0.0781 -0.13672,0.29297 0.0781,0.23438 0.3125,0.15625 0.54688,-0.17578 0.74219,-0.48828 0.0976,-0.19531 0.35156,-0.39062 l 0.21484,-0.17579 0.21485,-0.17578 q 0.15625,-0.15625 -0.0195,-0.33203 -0.19532,-0.15625 -0.3711,0.0195 l -0.15625,0.13672 z m 1.9336,2.07031 q -0.11719,0.0781 -0.27344,0.19532 l -0.25391,0.21484 q -0.33203,0.29297 -0.5664,0.37109 -0.21485,0.0977 -0.13672,0.3125 0.0781,0.23438 0.3125,0.15625 0.2539,-0.0976 0.60547,-0.39062 l 0.29297,-0.23438 q 0.15625,-0.13671 0.3125,-0.21484 0.19531,-0.11719 0.0586,-0.3125 -0.13672,-0.19531 -0.35156,-0.0977 z"
         id="path4182"
         inkscape:connector-curvature="0" />
      <path
         d="m 365.83911,538.60553 q -1.44531,0.87891 -2.98828,2.73437 l 0.46875,-0.13671 0.44922,-0.11719 q 0.27344,-0.0586 0.42969,-0.27344 l 1.64062,-2.20703 z m 6.91406,-3.75 q -0.0391,-0.41016 0.33204,-0.95703 l 0.17578,-0.23438 0.17578,-0.2539 1.83594,-2.67578 0,-0.0781 -0.33204,-0.0195 -0.39062,0.50781 -0.37109,0.48828 -0.39063,0.52735 q -0.21484,0.3125 -0.37109,0.54687 -0.6836,1.11328 -1.26953,1.75781 l -0.0977,0.11719 -0.0586,0.0781 -0.0586,0.0781 0.42969,0.0586 0.39062,0.0586 z m 5.9961,-4.0625 q 0.15625,0.19531 -0.0391,0.42969 l -0.15625,0.15625 -0.15625,0.15625 q -0.46875,0.37109 -0.9375,1.07422 -0.35157,0.50781 -0.72266,0.95703 l -0.46875,0.54687 -0.46875,0.52735 -0.11719,0.13671 -0.11719,0.15625 q -0.0976,0.19532 -0.0781,0.41016 l 0.17578,0 q 0.0781,0.0195 0.13672,0.0195 l 0.33203,-0.41015 0.35156,-0.39063 q 0.39063,-0.44922 0.66407,-0.74219 0.66406,-0.72265 1.13281,-1.5039 l 0.42969,-0.70313 0.44921,-0.68359 q 0,0 -0.0195,-0.0781 l -0.33203,-0.0977 -0.0586,0.0391 z m -11.3086,10.05859 q 0.0781,-0.52734 0.70313,-1.1914 0.42969,-0.42969 0.72266,-0.97657 0.2539,-0.42968 0.625,-0.72265 0.0781,-0.0586 0.21484,-0.17578 l 0.11719,-0.0977 0.13672,-0.11719 -0.17579,-0.0391 -0.15625,-0.0391 q -0.17578,-0.0391 -0.2539,0 l -0.19531,0.0976 -0.19532,0.0977 q -0.23437,0.11719 -0.35156,0.29297 l -0.11719,0.19531 -0.11718,0.17578 -0.27344,0.35157 q -0.15625,0.19531 -0.27344,0.33203 -0.60547,0.625 -1.05469,1.40625 -0.11718,0.17578 -0.0195,0.35156 l 0.3125,0.0391 0.35156,0.0195 z m 6.3086,-5.91797 0.0391,-0.0586 q 0.80078,-1.36719 2.05078,-2.83203 0.19531,-0.23438 0.46875,-0.625 l 0.21485,-0.3125 0.23437,-0.33203 q -0.64453,-0.17578 -0.9375,0.19531 l -0.39062,0.44922 q -0.21485,0.27344 -0.35157,0.46875 l -0.8789,1.32812 -0.85938,1.34766 0.0391,0.19531 0.0195,0.19532 q 0.13671,0.0195 0.29296,0.0391 l 0.0586,-0.0586 z m -5.41016,2.53907 -0.70312,0.17578 q -0.25391,0.0586 -0.48828,0.29297 -1.19141,1.25 -1.81641,2.22656 l -0.17578,0.25391 -0.17578,0.2539 -0.0586,0.0781 -0.0586,0.0977 0.625,-0.0391 0.56641,-0.0391 0.15625,-0.3125 0.13671,-0.27344 q 0.39063,-0.68359 1.19141,-1.58203 0.19531,-0.21484 0.42969,-0.54688 l 0.41015,-0.54687 -0.0391,-0.0391 z m 8.06641,1.77734 q 0.15625,-0.17578 0.15625,-0.17578 l 0.35156,-0.46875 q 0.19531,-0.29297 0.35156,-0.46875 l 0.44922,-0.48828 0.44922,-0.48828 q 0.54688,-0.54688 1.03516,-0.83985 l 0.0586,-0.0391 0.0391,-0.0391 0.0781,-0.11719 0.0976,-0.0977 q 0.0781,-0.11718 0.0977,-0.21484 0.0195,-0.17578 0,-0.44922 l -0.0391,-0.23437 -0.0195,-0.25391 q -0.17578,0.15625 -0.17578,0.17578 l -1.54297,1.5625 -0.85938,0.89844 -0.15625,0.15625 -0.17578,0.15625 q -0.17578,0.13672 -0.17578,0.35156 l 0,0.13672 -0.0195,0.13672 0,0.80078 z m 0.0586,5.95703 q 0.0977,-0.11719 0.0977,-0.11719 0.72265,-1.11328 1.85547,-2.32421 l 0.52734,-0.52735 0.54688,-0.52734 q 0.0781,-0.0586 0.11718,-0.11719 0.0391,-0.0781 0.0586,-0.13672 l 0,-0.48828 0,-0.50781 q -0.13672,0.0781 -0.3125,0.2539 l -2.5,2.8125 -0.0781,0.11719 q -0.0586,0.0586 -0.0586,0.0977 0,0.23437 -0.25391,0.35156 l 0,1.11328 z m -1.48437,-10.13672 0.0586,-0.15625 q 0.0586,-0.19531 0.13672,-0.29297 0.0781,-0.15625 0.23437,-0.33203 l 0.25391,-0.33203 0.60547,-0.72265 0.58594,-0.72266 q 0.68359,-0.87891 1.11328,-1.25 0.0976,-0.0977 0.23437,-0.25391 l 0.13672,-0.13672 0.13672,-0.15625 -0.9375,0 -0.11719,0.11719 -0.0976,0.11719 -0.11719,0.11719 -0.11719,0.13672 q -0.13672,0.13671 -0.21484,0.2539 -0.39063,0.66406 -1.01563,1.36719 -0.74218,0.83984 -1.46484,2.05078 l -0.0586,0.0977 -0.0586,0.13672 0.33203,0.0586 0.3125,0.0781 0.0586,-0.17578 z m 1.85547,24.08203 0.44921,-0.52734 0.42969,-0.50781 q 0.95703,-1.09375 1.64063,-2.40235 0.35156,-0.70312 0.76172,-1.97265 0,0 0.0586,-0.23438 -0.11719,0.13672 -0.11719,0.15625 l -0.35156,0.54688 q -0.21484,0.33203 -0.37109,0.54687 l -1.05469,1.40625 -1.05469,1.38672 -0.25391,0.35156 q -0.13671,0.19532 -0.13671,0.44922 l 0.0195,0.39063 -0.0195,0.41015 z m 2.28515,-19.98046 -0.52734,0.52734 -1.05469,1.03516 q -0.21484,0.21484 -0.44922,0.54687 l -0.13672,0.19531 -0.15625,0.19532 q -0.17578,0.19531 -0.39062,0.29296 l 0,0.3125 0,0.29297 0,0.15625 0,0.15625 q 0,0.19532 0.0586,0.33203 l 0.17578,-0.15625 0.13672,-0.15625 0.50781,-0.5664 0.48829,-0.58594 1.79687,-2.03125 q 0.0977,-0.11719 0.0977,-0.19531 l 0,-0.42969 0,-0.21484 0,-0.23438 -0.54688,0.52735 z m -2.4414,-2.16797 0.15625,-0.17578 0.29296,-0.29297 0.80079,-0.76172 0.78125,-0.76172 q 0.2539,-0.25391 0.64453,-0.82031 0.0976,-0.15625 0.0976,-0.42969 l -0.0195,-0.52734 -0.0195,-0.52735 -0.0195,-0.0781 -0.0195,-0.0977 -0.3711,0.56641 q -0.21484,0.3125 -0.37109,0.52734 -0.15625,0.19531 -0.42969,0.48828 l -0.42968,0.46875 -0.76172,0.87891 q -0.56641,0.68359 -0.48828,1.69922 l 0.15625,-0.15625 z m -0.21485,4.27734 0.17578,-0.25391 0.23438,-0.3125 q 0.13672,-0.17578 0.23437,-0.29296 0.85938,-0.85938 1.69922,-1.66016 l 0.21485,-0.19531 0.19531,-0.17578 q 0.19531,-0.23438 0.2539,-0.48829 0.15625,-0.0976 0.17579,-0.29296 l 0,-0.15625 0,-0.15625 -0.0195,-0.33204 0,-0.15625 0,-0.19531 -0.11718,0.0781 -0.0977,0.0586 q -0.0977,0.0781 -0.15625,0.11719 l -0.50781,0.48828 -0.50781,0.48828 q -0.87891,0.89844 -1.36719,1.67969 l -0.44922,0.72265 q -0.0391,0.0586 -0.0391,0.0977 l 0,0.89844 0.0781,0.0391 z m 3.16406,3.16406 -0.0586,0.0781 -0.0391,0.0781 -0.78125,0.9375 -0.76172,0.95703 -0.56641,0.72266 -0.5664,0.74219 -0.11719,0.15625 -0.0977,0.17578 -0.13672,0.21484 -0.0781,0.11719 -0.0781,0.13672 0,0.52734 0,0.3125 0,0.17578 0.0195,0.17579 q 0.13671,-0.15625 0.13671,-0.15625 l 1.09375,-1.42579 1.09375,-1.42578 0.25391,-0.3125 0.25391,-0.3125 q 0.27343,-0.37109 0.41015,-0.68359 l 0.0391,-0.0781 0.0586,-0.0586 q 0.0586,-0.0977 0.0391,-0.17578 l -0.0195,-0.41016 -0.0195,-0.42968 -0.0781,-0.0391 z m -2.91015,10 2.73437,-3.88672 q -0.0976,-0.54687 0.52735,-0.41015 -0.0391,-0.74219 -0.0781,-1.3086 l -0.0781,0.0781 -0.0586,0.0586 -0.0976,0.11719 -1.23047,1.46484 -0.48828,0.56641 -0.48828,0.58594 -0.44922,0.58594 -0.44922,0.625 q -0.0391,0.0391 -0.0391,0.13671 l 0.11718,1.36719 0.0781,0.0195 z m 2.87109,-12.08984 -0.0781,0.0391 -0.0977,0.0977 -0.60547,0.625 -0.58594,0.64453 q -1.09375,1.25 -1.64062,2.34375 -0.17578,0.33203 -0.17578,0.625 l 0,0.41016 0,0.44921 0.33203,-0.41015 0.33203,-0.39063 0.625,-0.78125 0.82031,-0.97656 q 0.48828,-0.58594 0.83985,-0.97656 0.39062,-0.42969 0.33203,-0.87891 -0.0195,-0.15625 -0.0195,-0.42969 l 0,-0.21484 -0.0195,-0.23437 -0.0586,0.0586 z m 0.11719,4.12109 -0.0391,0.0586 -0.0781,0.0977 -1.13281,1.48438 -1.93359,2.48047 -0.0781,0.13672 q -0.0391,0.0586 -0.0391,0.11718 l 0.0195,0.58594 0.0195,0.29297 0.0195,0.33203 0.13672,-0.17578 0.11719,-0.15625 q 0.13672,-0.17578 0.23437,-0.29297 l 0.52735,-0.58594 0.52734,-0.60547 0.85938,-1.03515 0.8789,-1.05469 q 0.13672,-0.15625 0.11719,-0.37109 l -0.0195,-0.54688 -0.0391,-0.5664 q 0,0 -0.0391,-0.27344 l -0.0586,0.0781 z m -9.49219,-8.4375 -0.17578,0.13672 -0.17578,0.15625 q -0.21484,0.17578 -0.3125,0.3125 -0.58594,0.85938 -1.36719,1.73828 -0.21484,0.25391 -0.19531,0.54688 1.44531,0.27344 2.87109,0.91797 0.0195,-0.33203 -0.0391,-1.11328 -0.0391,-0.78125 -0.11719,-0.9375 l -0.44922,0.5664 -0.44921,0.58594 q -0.15625,0.17578 -0.29297,0.13672 -0.23438,-0.0781 -0.17578,-0.33203 0.0195,-0.0781 0.0586,-0.13672 l 0.15625,-0.23438 0.58594,-0.70312 0.17578,-0.19531 q 0.50781,-0.50782 0.42969,-0.95704 l 0,-0.17578 0,-0.19531 q 0,-0.25391 -0.25391,-0.35156 l -0.27344,0.23437 z m 9.7461,12.71485 -0.0977,0.13672 -0.0977,0.13671 q -0.5664,0.91797 -1.44531,2.10938 l -0.78125,1.03516 -0.76172,1.01562 q -0.0781,0.11719 -0.0781,0.27344 l 0.11718,1.54297 0.0195,0.0977 0.0781,-0.0781 0.0586,-0.0586 1.83594,-2.24609 q 0.23438,-0.3125 0.42969,-0.56641 0.41016,-0.60546 0.52734,-1.13281 l 0.0195,-0.17578 q 0.0195,-0.0977 0.0586,-0.13672 0.0391,-0.0586 0.11719,-0.11719 l 0.15625,-0.0976 -0.0977,-1.71875 -0.0586,-0.0195 z m -8.06641,-14.92188 -0.0195,0.0781 -0.0781,0.64453 -0.0391,0.64453 q -0.0781,1.91406 0.0977,4.00391 l 0.0391,0.48828 0.0195,0.50781 q 0.0195,0.50781 -0.50781,0.56641 -0.13672,0.0195 -0.21485,0.0781 -0.27343,0.17578 -0.5664,0.0195 l -0.25391,-0.13672 q -3.32031,-1.46484 -6.42578,-0.64453 -3.08594,0.80078 -4.47266,3.4375 -0.76171,1.44531 -1.03515,3.08594 -0.23438,1.38672 -0.0781,2.51953 0.21485,1.60156 1.09375,3.08594 1.3086,2.24609 3.76953,3.08594 0.80079,0.27343 2.20704,0.44921 2.10937,0.25391 4.19921,0.15625 0.15625,-0.0195 0.46875,-0.0586 0.15625,-0.0391 0.23438,-0.19531 0.15625,-0.27344 0.42969,-0.27344 0.27343,-0.0195 0.44922,0.25391 l 0.0781,0.0977 0.0781,0.0977 q 0.19531,0.15625 0.17578,0.42969 l -0.0586,0.27343 -0.0391,0.29297 q -0.11719,0.6836 0.48828,0.83985 0.6836,0.15625 1.25,0.17578 1.11328,0.0195 1.95313,0.21484 l 0.27343,0.0586 0.27344,0.0391 q 0.0195,-0.13672 0.0195,-0.13672 l -0.0976,-0.91797 q -0.0391,-0.29297 0.13672,-0.48828 0.0391,-0.0391 0.0586,-0.11719 l 0.0391,-0.13672 0,-0.11718 -0.0195,-0.11719 -0.25391,-4.70703 -0.13671,-2.07032 q -0.0586,-1.21093 -0.0781,-2.07031 -0.0195,-0.58594 0.0195,-1.5625 l 0.0391,-0.80078 0.0195,-0.78125 0,-1.875 -0.0195,-1.89453 -0.0195,-1.38672 q -0.0195,-2.26562 0.11719,-3.96484 l 0.0195,-0.3125 0.0195,-0.33203 -0.91797,-0.15625 -0.89843,-0.17579 q -1.15235,-0.19531 -1.81641,-0.29296 l -0.0195,0.0977 z m -14.62891,13.53516 0.0977,-0.44922 0.0781,-0.46875 q 0.46875,-2.98828 2.26563,-4.98047 l 0.0781,-0.0977 q 0.0586,-0.0781 0.0586,-0.11718 0.13672,-0.625 0.76172,-1.21094 l 0.29297,-0.25391 0.29296,-0.23437 q 0.35157,-0.3125 0.56641,-0.52735 l 0.95703,-0.99609 0.9375,-0.99609 q 0.56641,-0.58594 1.13281,-1.13282 1.17188,-1.11328 3.04688,-1.36718 1.52344,-0.21485 2.83203,0.23437 l 0.0391,0.0195 0.0781,0.0195 0.0781,-0.70312 0.0781,-0.70313 q 0.0195,-0.0976 -0.0586,-0.17578 -0.29296,-0.33203 -0.0391,-0.70312 0.50781,-0.74219 0.80078,-1.13281 l 1.11328,-1.48438 1.09375,-1.48437 0.19532,-0.27344 0.17578,-0.29297 0.11719,-0.13672 0.11718,-0.13672 q 0.21485,-0.21484 0.44922,-0.0586 0.23438,0.15625 0.72266,0.17578 l 1.1914,0.0195 1.19141,0.0195 0.39063,0 0.41015,0.0195 q 0.19531,0.0391 0.46875,0.0977 l 0.25391,0.0586 0.27344,0.0781 0,-0.0195 0.0195,0 0.0781,-0.0391 q 0.25391,-0.13671 0.48828,0 0.23438,0.13672 0.25391,0.41016 l 0,0.23438 0,0.21484 q 0.0195,0.15625 -0.0781,0.27344 -0.0781,0.0781 -0.21484,0.13672 l 0,0.78125 0.0195,0.76171 0.0391,1.6211 0.0586,1.64062 0.15625,4.64844 0.0391,0.89844 0,0.91797 q 0,2.77343 0.3125,7.67578 l 0.13672,2.46094 q 0,0.21484 0.11719,0.35156 0.29297,0.3125 0.0586,0.64453 -0.33203,0.44922 -0.44922,1.13281 -0.15625,0.78125 -0.76172,1.77735 -0.37109,0.625 -0.9375,1.36718 l -0.50781,0.66407 -0.52734,0.64453 q -0.21485,0.2539 -0.44922,0.60547 l -0.44922,0.625 q -0.0586,0.0977 -0.13672,0.27343 l -0.0781,0.13672 -0.0586,0.13672 q -0.23437,0.37109 -0.68359,0.25391 l -0.0391,-0.0195 -0.0391,0 q -0.37109,0 -0.89843,-0.11719 l -0.44922,-0.0977 -0.44922,-0.0781 -0.95703,-0.0977 -0.9375,-0.0781 -0.58594,-0.0781 -0.58594,-0.0781 q -0.97656,-0.13672 -0.9375,-1.21094 l 0.0391,-0.29297 0.0391,-0.3125 0,-0.17578 -0.27344,0.0586 -0.27344,0.0586 q -4.41406,0.83984 -8.0664,-0.97657 -2.44141,-1.23047 -3.63282,-3.51562 -0.64453,-1.23047 -0.82031,-2.69531 l -0.0586,-0.21485 -0.0586,-0.23437 0,-1.69922 z m 12.51953,-17.38281 q 0.0195,0.35156 -0.23437,0.39062 -0.19531,0.0195 -0.27344,-0.21484 -0.0586,-0.17578 -0.13672,-0.29297 l -0.3125,-0.46875 -0.33203,-0.44922 q -0.37109,-0.50781 -0.72265,-0.83984 -0.19532,-0.17579 -0.0195,-0.35157 0.19532,-0.19531 0.39063,0.0195 0.54687,0.58594 0.85937,0.9961 l 0.33204,0.44922 0.3125,0.46875 q 0.0391,0.0586 0.0781,0.15625 l 0.0391,0.0781 0.0195,0.0586 z m -1.30859,2.87109 -0.0586,-0.0195 -0.0977,-0.0195 q -0.13672,-0.0391 -0.21484,-0.0781 -0.29297,-0.13672 -0.50782,-0.27344 -0.54687,-0.39062 -0.99609,-0.5664 -0.37109,-0.13672 -0.25391,-0.3711 0.11719,-0.2539 0.44922,-0.0781 l 1.15235,0.64453 0.33203,0.17578 q 0.17578,0.0781 0.35156,0.0977 0.29297,0.0195 0.27344,0.23437 0,0.25391 -0.3125,0.25391 l -0.11719,0 z m 2.05078,-7.53906 q -0.0195,-0.29297 0.15625,-0.33203 0.27344,-0.0586 0.3125,0.13671 0.0781,0.39063 0.39063,0.76172 l 0.27343,0.3125 0.29297,0.3125 q 0.19532,0.21485 0.27344,0.42969 0.11719,0.27344 -0.11719,0.35156 -0.27343,0.0781 -0.35156,-0.19531 -0.0391,-0.0977 -0.11719,-0.19531 l -0.0781,-0.0781 -0.0977,-0.0781 q -0.46875,-0.42969 -0.83984,-1.11328 -0.0391,-0.0586 -0.0781,-0.17578 l -0.0195,-0.0781 0,-0.0586 z m 10.74219,1.79687 q -0.17578,-0.0195 -0.27344,-0.13672 -0.0781,-0.11718 0,-0.2539 l 0.0977,-0.0977 0.0781,-0.0977 q 0.60547,-0.52734 1.07422,-1.17187 0.11719,-0.17578 0.29297,-0.29297 0.19531,-0.15625 0.37109,0.0586 0.11719,0.15625 -0.0391,0.3125 l -0.68359,0.76172 -0.6836,0.74219 q -0.0391,0.0391 -0.11718,0.0977 l -0.0781,0.0391 -0.0391,0.0391 z m 1.75781,3.96485 -0.29297,0 -0.29297,0 q -0.2539,-0.0391 -0.48828,-0.17579 -0.23437,-0.13671 -0.0781,-0.35156 0.13672,-0.21484 0.33203,-0.0781 0.11719,0.0781 0.27344,0.0977 l 0.13672,0.0195 0.15625,-0.0195 0.23437,0 0.23438,0 q 0.39062,-0.0391 0.66406,-0.0977 0.29297,-0.0781 0.39062,0.13672 0.0781,0.23437 -0.23437,0.33203 -0.23438,0.0781 -0.44922,0.0977 l -0.29297,0.0195 -0.29297,0 0,0.0195 z m -1.05469,-2.2461 q -0.35156,0.0195 -0.37109,-0.23437 -0.0195,-0.21485 0.19531,-0.27344 l 0.27344,-0.0586 0.27344,-0.0781 0.2539,-0.0781 0.27344,-0.0586 0.27344,-0.0391 q 0.13672,-0.0391 0.25391,-0.11719 0.21484,-0.15625 0.35156,0.0586 0.15625,0.21484 -0.0586,0.35156 -0.23437,0.15625 -0.42968,0.19531 -0.66407,0.11719 -1.03516,0.29297 -0.0586,0.0195 -0.13672,0.0195 l -0.0586,0.0195 -0.0586,0 z m -17.67578,18.59375 0.0977,-0.0781 0.625,-0.70313 0.27344,-0.3125 0.27343,-0.3125 q 0.33204,-0.33203 0.625,-0.54687 l 0.0391,-0.0391 0.0391,-0.0586 q -1.79688,0.42969 -2.08984,2.16797 l 0.11718,-0.11719 z m 5.01953,2.8125 q -0.68359,0.76172 -1.21093,1.75781 l 0.17578,-0.0586 0.15625,-0.0586 0.29297,-0.0977 0.27343,-0.11719 0.25391,-0.13672 q 0.21484,-0.5664 0.0586,-1.28906 z m 0.0391,-2.69531 q 0.0586,-1.17188 0.13672,-2.12891 -0.54688,-0.27343 -1.11329,-0.29297 0.0977,0.39063 -0.0976,0.66407 -0.0977,0.13672 -0.0586,0.46875 0.0195,0.17578 0.23438,0.27343 0.0391,0.0195 0.0586,0.11719 l 0.0391,0.0586 0.0195,0.0781 0.0195,0.11719 q 0.0195,0.0586 0.0391,0.0976 0.29297,0.35157 0.72266,0.54688 z m -2.01172,-0.74219 q -2.20703,2.01172 -2.91016,3.30078 l 0.0781,0.17578 0.0976,0.17579 q 0.11719,0.21484 0.27344,0.37109 0.0977,-0.52734 0.64453,-1.21094 l 0.64453,-0.82031 0.625,-0.82031 0.56641,-0.72266 0.11719,-0.17578 -0.0586,-0.11719 -0.0391,-0.0781 -0.0391,-0.0781 z m -3.08594,2.61719 0.11719,-0.15625 0.11719,-0.17578 q 0.3125,-0.54688 0.82031,-1.03516 l 1.71875,-1.66015 q 0.17578,-0.17579 0.21484,-0.41016 0,-0.13672 0.0586,-0.33203 l 0.11718,-0.33203 0.0391,-0.0977 0.0391,-0.0781 q -0.0977,0 -0.15625,0.0586 l -0.0586,0.0781 -0.0781,0.0781 -0.29297,0.23437 -0.3125,0.23438 q -0.35156,0.29297 -0.56641,0.50781 -0.35156,0.33203 -0.80078,0.80078 l -0.76172,0.83985 -0.19531,0.2539 -0.17578,0.27344 q -0.0391,0.0391 -0.0391,0.0977 l 0.11719,0.80078 0.0781,0.0195 z m 4.70703,-0.9375 q -0.58594,0.64453 -1.52344,1.95312 -0.9375,1.3086 -1.01562,1.58204 l 0.48828,0.0391 0.46875,0.0391 0.15625,-0.23437 0.15625,-0.21485 0.29297,-0.42969 0.625,-0.91796 0.21484,-0.29297 0.21485,-0.29297 q 0.37109,-0.41016 0.27343,-0.95703 l -0.0195,-0.0781 -0.15625,-0.0977 -0.17578,-0.0977 z m -2.89062,2.98828 0.21484,-0.3125 0.42969,-0.60547 0.41015,-0.60547 0.42969,-0.60547 0.44922,-0.5664 0.44922,-0.56641 -0.35156,-0.33203 -0.33203,-0.3125 -0.11719,0.13672 -0.11719,0.11719 q -1.05469,1.48437 -1.71875,2.20703 -0.11719,0.13672 -0.19531,0.29297 l -0.11719,0.23437 -0.0977,0.23438 -0.11718,0.23437 -0.0391,0.11719 -0.0586,0.13672 0.15625,0.11719 0.15625,0.13671 0.33203,0.27344 0.23438,-0.33203 z m 1.1914,1.64063 q -1.73828,-0.0195 -2.92968,-1.36719 -1.75782,-1.97266 -1.17188,-4.4336 0.46875,-2.01171 2.38281,-2.79296 1.85547,-0.76172 3.76953,-0.25391 l 0.17579,0.0391 0.17578,0.0586 q 0.21484,0.0586 0.39062,0.0586 0.52735,-0.0195 0.46875,0.60547 l -0.0976,0.9375 q -0.0586,0.58594 -0.0586,0.95703 l -0.0391,1.52344 0,1.54297 0,0.66406 0.0195,0.68359 q 0,0.80078 -0.72266,1.17188 -1.13281,0.58593 -2.36328,0.60547 z"
         id="path4184"
         inkscape:connector-curvature="0" />
      <path
         d="m 383.53442,542.19928 q 0.95704,-0.19531 2.01172,0.44922 0.0586,0.0195 0.0977,0.13672 l 0.0195,0.11718 0.0391,0.0977 -0.11718,0.0391 -0.0977,0.0586 q -0.11719,0.0391 -0.19531,0.0195 l -0.87891,-0.27344 -0.87891,-0.27344 0,-0.37109 z m 11.81641,-2.36328 q -0.0586,-0.70313 -1.79687,-0.52735 0.80078,0.23438 1.79687,0.52735 z m 5.01953,1.8164 q -0.50781,-0.17578 -1.48437,-0.48828 l -0.76172,-0.2539 q -0.42969,-0.15625 -0.80078,-0.27344 l 0.35156,0.29297 0.35156,0.29297 q 0.41016,0.35156 0.6836,0.50781 0.80078,0.42969 1.66015,-0.0781 z m -14.0039,10.97657 q 0.3125,1.28906 1.26953,1.5625 0.48828,0.13672 1.23047,0.39062 l 1.23046,0.42969 q 0.19532,0.0586 0.50782,0.13672 l 0.29297,0.0586 0.29296,0.0781 q -0.0586,-0.25391 -0.15625,-0.64453 l -0.0781,-0.27344 -0.0781,-0.27344 q -0.33203,0.21484 -0.74218,0.11719 -0.13672,-0.0195 -0.33203,-0.11719 l -0.33204,-0.13672 q -0.60546,-0.2539 -1.5039,-0.64453 l -0.78125,-0.33203 -0.82031,-0.35156 z m 6.11328,5.05859 q -0.11719,-0.17578 -0.25391,-0.42969 l -0.21484,-0.39062 q -0.25391,-0.42969 -0.42969,-0.6836 -0.25391,-0.35156 -0.60547,-0.46875 -0.54687,-0.15625 -1.42578,-0.39062 l -1.42578,-0.37109 -0.44922,-0.13672 -0.44922,-0.15625 -0.13672,0.21484 0.15625,0.17578 0.17578,0.17578 q 0.19532,0.21485 0.35157,0.3125 0.83984,0.41016 1.95312,0.9375 l 1.99219,0.91797 q 0.11719,0.0586 0.33203,0.13672 l 0.19531,0.0781 0.23438,0.0781 z m 0,-11.81641 q -1.01563,-0.64453 -2.53907,-1.13281 -0.50781,-0.17578 -1.34765,-0.39062 l -1.36719,-0.39063 q -0.21484,0.46875 -0.46875,1.03516 l 0.19531,0.0781 0.17578,0.0781 q 0.21485,0.0781 0.35157,0.11719 1.71875,0.27343 3.73047,1.21093 0.625,0.29297 0.82031,0.21485 0.15625,-0.0781 0.44922,-0.82032 z m -1.64063,7.71485 -0.0391,-0.29297 q -0.0195,-0.3125 -0.0195,-0.52734 0.0391,-0.50782 -0.48828,-0.66407 l -1.42578,-0.48828 -1.42579,-0.46875 q -0.3125,-0.0977 -0.78125,-0.19531 l -0.41015,-0.0781 -0.41016,-0.0781 q -0.0391,1.19141 0.9961,1.54297 0.82031,0.27344 2.01171,0.74219 l 0.9961,0.41015 1.01562,0.39063 -0.0195,-0.29297 z m 1.95313,-9.82422 -1.11328,-0.39063 q -1.26954,-0.44921 -2.12891,-0.76171 -0.9375,-0.35157 -1.17188,-0.27344 -0.23437,0.0976 -0.74218,0.95703 l -0.0391,0.0781 -0.0391,0.0977 0.17578,0.0781 0.15625,0.0781 1.19141,0.3125 q 0.76172,0.19531 1.21094,0.35156 1.36718,0.42969 2.26562,1.03516 0.0586,0.0391 0.19531,0.0195 0.13672,-0.0391 0.19532,-0.0977 0.19531,-0.17578 0.44922,-0.46875 l 0.11718,-0.13671 0.11719,-0.13672 q 0.17578,-0.19532 0.29297,-0.33203 l -1.13281,-0.41016 z m -2.51953,-3.14453 0.35156,0.17578 0.35156,0.17578 q 0.41016,0.19531 0.72266,0.27344 0.41015,0.11719 1.23047,0.2539 l 0.625,0.11719 0.625,0.13672 q 0.27343,0.0781 0.625,0.23438 l 0.29296,0.15625 0.29297,0.15625 q 0.0391,0.0195 0.0195,0.15625 l 0,0.13671 0,0.11719 -0.19531,-0.0195 q -0.11719,0 -0.17578,-0.0391 l -0.37109,-0.13672 -0.35157,-0.17578 q -0.42968,-0.19531 -0.72265,-0.23438 -2.63672,-0.29297 -3.82813,-1.25 l -0.23437,0.21485 -0.21485,0.21484 q -0.2539,0.23438 -0.48828,0.44922 l 0.39063,0.15625 0.37109,0.15625 0.72266,0.27344 3.55469,1.36718 q 0.52734,0.19532 0.91796,-0.0586 0.72266,-0.46875 1.81641,-0.97656 0.3125,-0.13672 0.80078,-0.29297 l 0.41016,-0.15625 0.44922,-0.15625 -0.29297,-0.21484 -0.25391,-0.19532 q -0.3125,-0.23437 -0.52734,-0.37109 -0.85938,-0.58594 -2.34375,-1.01563 l -0.60547,-0.17578 -0.625,-0.17578 q -0.72266,-0.19531 -1.21094,-0.39062 -0.0586,-0.0195 -0.11719,0 l -0.11718,0.0391 -1.89453,0.87891 0,0.19531 z m -3.53516,8.3789 0.9375,0.39063 q 1.09375,0.44922 1.85547,0.80078 0.0976,0.0391 0.21484,0.17578 l 0.0781,0.11719 0.0976,0.11719 -0.15625,0.0195 -0.15625,0.0195 q -0.17578,0.0195 -0.29297,0 -0.15625,-0.0391 -0.37109,-0.13672 l -0.35156,-0.15625 -1.38672,-0.54687 -1.38672,-0.54688 q -0.15625,0.78125 -0.0391,0.91797 0.0976,0.13672 0.78125,0.21484 0.33203,0.0586 0.78125,0.17578 l 0.37109,0.13672 0.3711,0.11719 1.32812,0.44922 0.64453,0.23437 0.625,0.21485 q 0.27344,-0.97656 0.64453,-2.28516 l 0.29297,-1.11328 0.3125,-1.09375 -2.69531,-0.89844 -2.69531,-0.8789 -0.0781,0.27343 -0.0781,0.23438 q -0.0781,0.27344 -0.13672,0.41016 l 0.74219,0.35156 0.70312,0.35156 q 0.82031,0.41016 1.38672,0.66406 0.29297,0.13672 0.82031,0.3125 l 0.42969,0.13672 0.41016,0.15625 q 0.11718,0.0391 0.2539,0.15625 l 0.11719,0.11719 0.13672,0.0977 -0.17578,0.0586 -0.15625,0.0586 q -0.19532,0.0781 -0.29297,0.0391 -0.60547,-0.23438 -1.34766,-0.54688 l -1.32812,-0.56641 q -0.35157,-0.15625 -0.89844,-0.41015 l -0.46875,-0.21485 -0.48828,-0.23437 -0.0977,0.44922 -0.0781,0.42969 q -0.0977,0.54687 -0.15625,0.83984 l 0.97656,0.39062 z m 21.21094,-0.0391 -0.13672,-0.82031 q -0.13672,-0.95703 -0.27344,-1.60156 -0.0195,-0.13672 -0.15625,-0.29297 l -0.11719,-0.11719 -0.11718,-0.11719 -0.11719,-0.11718 -0.13672,-0.11719 q -0.17578,-0.13672 -0.21484,-0.23438 -0.80079,-1.46484 -2.44141,-2.14843 -1.99219,-0.83985 -4.47266,-0.48829 -2.69531,0.3711 -4.53125,1.71875 -1.89453,1.38672 -2.16797,2.94922 -0.0976,0.56641 -0.50781,1.6211 l -0.3125,0.80078 q -0.15625,0.44922 -0.23437,0.82031 -0.64453,3.16406 0.91797,5.58594 1.58203,2.4414 4.70703,3.00781 4.25781,0.80078 7.87109,-2.1875 1.44531,-1.19141 1.79688,-2.87109 0.19531,-0.91797 0.41015,-2.28516 l 0.19531,-1.13281 0.17579,-1.11328 -0.13672,-0.85938 z m -8.71094,-8.80859 q 1.60156,0.54687 2.73437,0.95703 0.19532,0.0586 0.44922,0.27344 l 0.19532,0.19531 0.21484,0.15625 q 0.3125,0.21484 0.48828,0.25391 2.08984,0.52734 4.04297,2.59765 1.34766,1.42578 1.60156,3.45703 0.11719,0.80078 0.0781,1.83594 l -0.0586,0.95703 -0.0586,0.9375 q -0.0586,0.625 -0.25391,1.48438 l -0.17578,0.72265 -0.17578,0.74219 q -0.52734,2.28516 -2.46094,3.63281 -3.41797,2.38282 -7.92968,2.20703 -1.52344,-0.0586 -3.35938,-1.1914 -0.25391,-0.15625 -0.625,-0.29297 l -0.3125,-0.0977 -0.33203,-0.11718 q -1.23047,-0.44922 -2.98828,-1.17188 l -1.48438,-0.60547 -1.48437,-0.60547 q -0.39063,-0.15625 -0.625,-0.15625 -0.74219,-0.0195 -0.56641,-0.72265 0.0781,-0.35157 0,-0.60547 -0.3125,-0.9961 -0.5664,-1.48438 -1.34766,-2.55859 -0.76172,-5.78125 0.99609,-5.41015 5.15625,-8.26172 2.59765,-1.75781 5.70312,-1.03515 0.46875,0.0976 0.58594,0.21484 0.11719,0.11719 0.21484,0.56641 l 2.75391,0.9375 z m 5.74219,1.62109 -0.0977,-0.0586 q -0.0977,-0.0586 -0.11719,-0.0977 -0.0195,-0.0781 0.0391,-0.17578 0.0586,-0.11719 0.11718,-0.15625 0.70313,-0.41016 1.75782,-0.97656 0.21484,-0.11719 0.37109,-0.11719 0.0781,0.0195 0.15625,0.0781 0.0781,0.0586 0.0977,0.11718 0.0195,0.0586 -0.0391,0.15625 -0.0391,0.0781 -0.0976,0.11719 l -0.58594,0.42969 q -0.33203,0.23437 -0.60547,0.39062 -0.15625,0.0977 -0.42969,0.17578 l -0.23437,0.0781 -0.25391,0.0781 -0.0781,-0.0391 z m -1.54297,-0.78125 q -0.25391,-0.19531 -0.25391,-0.21484 -0.0586,-0.15625 0.0391,-0.27344 0.74219,-0.95703 1.21094,-1.48437 0.15625,-0.19532 0.46875,-0.3125 0.0586,-0.0195 0.15625,0.0195 0.0781,0.0586 0.11719,0.11718 0.0391,0.0391 0.0195,0.13672 0,0.0781 -0.0391,0.13672 -0.6836,0.87891 -1.13281,1.38672 -0.0977,0.11719 -0.27344,0.25391 l -0.3125,0.23437 z m -15.48828,-1.77734 -0.0195,0.0586 q -0.0391,0.0977 -0.0977,0.13672 -0.0391,0.0195 -0.11719,0 -0.0976,0 -0.13672,-0.0391 -0.76172,-0.87891 -1.21093,-1.44531 -0.0391,-0.0586 -0.0391,-0.19532 l 0,-0.11718 0,-0.0977 0.21485,0 q 0.11718,0 0.17578,0.0391 0.48828,0.48828 1.15234,1.23047 0.0391,0.0391 0.0781,0.15625 l 0.0195,0.0977 0.0195,0.0977 -0.0391,0.0781 z m 19.17968,4.0625 q -0.0195,-0.13672 -0.0195,-0.23438 0,-0.0781 0.0781,-0.15625 0.0781,-0.0977 0.15625,-0.11718 0.82031,-0.23438 1.42578,-0.33204 0.0781,-0.0195 0.19531,0.0586 l 0.11719,0.0781 0.0977,0.0586 -0.0781,0.0781 -0.0586,0.0781 q -0.0977,0.0977 -0.17578,0.11718 l -0.70313,0.21485 -0.72266,0.17578 -0.23437,0.21484 -0.0781,-0.23437 z m -21.03515,-2.20703 -0.39063,-0.13672 -0.76172,-0.27344 q -0.0391,-0.0195 -0.0976,-0.11719 l -0.0195,-0.0977 -0.0391,-0.0977 0.0781,-0.0391 0.0977,-0.0586 q 0.0976,-0.0586 0.15625,-0.0391 0.72265,0.17578 1.58203,0.48828 0.0391,0.0195 0.0976,0.11719 0.0586,0.11719 0.0391,0.15625 -0.0586,0.0586 -0.15625,0.13672 l -0.19532,0.11719 -0.39062,-0.15625 z m 10.80078,13.125 0.25391,0.0977 0.44921,0.17578 q 0.48829,0.19532 0.85938,0.35157 l 0.0977,-0.19532 -1.25,-0.9375 -0.11719,0.0586 -0.13672,0.0976 q -0.19531,0.11719 -0.39063,0.23438 l 0.23438,0.11719 z m 5.27344,-6.11328 q -0.6836,-0.87891 -1.58203,-1.13282 -0.89844,-0.27343 -1.54297,0.23438 0.19531,0.42969 3.125,0.89844 z m -2.73438,1.62109 q -0.0781,0.58594 -0.0976,0.80078 l 2.01171,0.46875 1.99219,0.46875 0,-0.0781 0.0195,-0.0977 q 0.0195,-0.11719 0,-0.11719 l -1.93359,-0.72265 -0.97656,-0.35157 -1.01563,-0.37109 z m -1.875,3.57422 q 0.23438,0.15625 0.56641,0.37109 l 0.2539,0.17578 0.25391,0.17578 q 0.56641,0.39063 0.95703,0.60547 1.11328,0.6836 2.05078,-0.46875 -1.83593,-0.0195 -3.24218,-0.99609 -0.0781,-0.0586 -0.33204,0 l -0.23437,0.0781 -0.27344,0.0586 z m 0.95703,-0.78125 q 0.97657,0.89844 3.20313,1.1914 0.5664,0.0781 0.70312,-0.41015 l -1.8164,-0.58594 -1.85547,-0.58594 -0.11719,0.17578 -0.11719,0.21485 z m 2.75391,-0.97656 -1.83594,-0.41016 q -0.0781,-0.0195 -0.21484,0.0977 l -0.11719,0.11718 -0.11719,0.0977 0.0781,0.19531 3.10547,1.01563 q 0.50781,0.15625 0.64453,0.0586 0.13672,-0.0977 0.3125,-0.72266 l -1.85547,-0.44921 z m 2.26562,-0.9961 q -0.0781,-0.17578 -0.17578,-0.44922 l -0.0781,-0.21484 -0.0781,-0.19531 q -0.15625,-0.46875 -0.39062,-0.60547 -1.34766,-0.87891 -3.4375,-0.9375 0.0781,0.72265 0.0976,1.07422 l 0.9961,0.33203 0.99609,0.3125 q 1.3086,0.42969 2.07031,0.68359 z m -7.30468,2.53906 q 1.40625,-0.5664 2.03125,-2.53906 0.625,-1.97265 -0.3125,-2.91015 -1.19141,1.01562 -1.73828,2.85156 -0.52735,1.77734 0.0195,2.59765 z m 2.67578,2.85157 q -0.46875,-0.0391 -0.78125,-0.0977 -3.30078,-0.58594 -3.16406,-4.00391 0.11718,-2.83203 2.03125,-4.72656 1.1914,-1.15234 2.69531,-1.25 1.62109,-0.11719 2.92969,1.09375 3.47656,3.22266 0.72265,6.95313 l -0.19531,0.2539 -0.21484,0.27344 q -1.3086,1.79688 -3.22266,1.60156 l -0.80078,-0.0977 z"
         id="path4186"
         inkscape:connector-curvature="0" />
    </g>
    <g
       transform="matrix(4.49796,-0.83833546,-0.83024708,-4.5417797,-1238.6994,-1978.3739)"
       style="font-style:normal;font-variant:normal;font-weight:normal;font-stretch:normal;font-size:47.61201859px;line-height:125%;font-family:'Sketch 3D';-inkscape-font-specification:'Sketch 3D, Normal';text-align:start;letter-spacing:0px;word-spacing:0px;writing-mode:lr-tb;text-anchor:start;fill:#333333;fill-opacity:1;stroke:none;stroke-width:1px;stroke-linecap:butt;stroke-linejoin:miter;stroke-opacity:1"
       id="text4172"
       inkscape:export-xdpi="90"
       inkscape:export-ydpi="90"
       inkscape:export-filename="/Users/dougtangren/code/web/lando/logo.png">
      <path
         d="m 199.94712,-594.69113 q -0.13949,0.95317 -0.34872,2.62703 l -0.34872,2.65028 q -0.44172,3.11523 -0.99967,5.20756 -1.39488,5.34705 -4.32414,7.67186 -2.30156,1.7901 -4.83559,2.60378 -0.25573,0.0697 -0.58121,0.16274 l -0.5347,0.11624 q -0.6277,0.13949 -1.02291,0.30222 l -0.0465,-0.18598 -0.0697,-0.23248 -0.13948,-0.44172 q -0.16274,-0.55795 -0.27898,-0.97641 -0.30222,-1.13916 -0.25573,-1.60412 4.69611,-0.76719 5.32381,-4.7426 0.13948,-0.16274 0.0697,-0.32548 0.39522,-3.64994 -2.4178,-9.83392 -0.99966,-2.16207 -2.46429,-4.81235 -0.51146,-0.90668 -1.18565,-2.06908 l -0.25573,-0.46496 -0.27898,-0.44171 q -0.27897,-0.53471 -0.46496,-0.81369 0.41847,-0.13948 1.30189,-0.27897 l 0.34872,-0.0465 0.30223,-0.0233 q 0.32547,-0.0697 0.51146,-0.11624 0.39521,-0.11624 1.06941,-0.25572 l 0.55795,-0.11625 0.5347,-0.11624 q 0.0697,0.18599 0.23248,0.27898 0.23249,0.79044 0.79044,2.04583 l 0.44171,0.99967 q 0.25573,0.55795 0.39522,0.97642 1.37163,3.5802 2.88276,5.85851 l 0.0697,0.0697 0,0.16274 q 0.0232,0.5812 0.60445,0.5812 0.55795,0 0.55795,-0.5812 l 0,-0.53471 0,0 q -0.0232,-3.37097 0.69745,-8.27631 l 0.11624,0.0465 q 0.27897,0.0465 0.34872,-0.23248 0.093,-0.27898 -0.18599,-0.34872 l -0.18598,-0.0465 q 0.18598,-1.30189 0.46496,-2.90601 l 1.41813,-0.093 q 0.79043,-0.0465 1.39488,-0.0233 0.69745,0.0233 1.11591,-0.0232 0.65095,-0.0465 1.09266,-0.23248 -0.44171,1.7436 -0.81368,4.39388 l -0.30223,2.25506 q -0.18598,1.41813 -0.30222,2.18532 z m -13.94884,16.59911 q -0.39521,-0.18599 -0.90667,-0.34872 l -0.95317,-0.25573 q -1.18565,-0.34872 -1.81335,-0.72069 -0.72069,-0.41847 -1.58087,-0.76719 l 0.46497,-0.11624 q 0.97641,0.30223 2.76651,1.09266 l 1.37164,0.5812 q 0.76719,0.30223 1.39488,0.51146 l -0.27897,0.0697 -0.30223,0.0697 q -0.093,-0.093 -0.16274,-0.11624 z m -3.67319,2.3248 q -0.5812,-0.37196 -1.62736,-0.83693 l -0.83693,-0.37196 q -0.46496,-0.23249 -0.81368,-0.41847 l -0.0233,-0.0232 0,-0.16273 q 0.90667,0.11624 1.83659,0.46496 l 0.27898,0.13949 0.27898,0.11624 q 0.37197,0.18598 0.5812,0.23248 0.44171,0.11624 0.79043,0.23248 0.48821,0.16273 0.88343,0.32547 1.04616,0.41846 1.53437,0.88343 l 0,0.0232 q 0.11624,0.39522 0.25573,0.90668 l 0.13949,0.44171 0.13949,0.44171 q -0.6742,-0.39521 -1.72036,-1.1624 l -0.83693,-0.6277 q -0.46496,-0.34872 -0.86018,-0.60445 z m -3.41746,-3.20823 -0.0465,-0.60445 q 1.44138,0.41847 3.20823,1.39489 0.53471,0.27897 1.44138,0.5347 l 0.74394,0.18599 q 0.44171,0.11624 0.74394,0.20923 0,0.13949 0.0465,0.23248 -0.0697,0.41846 0,0.97642 -0.55795,-0.39522 -1.39488,-0.74394 l -0.74394,-0.25573 q -0.25573,-0.093 -0.69744,-0.25573 -0.0697,0 -0.20923,-0.0465 -0.18599,-0.0697 -0.39522,-0.11624 -0.55795,-0.18599 -1.04616,-0.32548 -1.46463,-0.39521 -1.60412,-0.34872 l 0,-0.23248 -0.0465,-0.60445 z m 4.37063,-2.34805 q 0.34872,0.32547 1.13916,0.5347 l 0.30222,0.093 0.32547,0.0697 q 0.34873,0.093 0.55796,0.18598 1.65061,0.6742 3.41746,1.11591 -0.55795,0.53471 -1.30189,0.86018 -1.34839,-0.27898 -3.39422,-1.23215 -0.0697,-0.0232 -0.88342,-0.32547 l -0.37197,-0.11624 -0.37197,-0.13949 q -0.41846,-0.16274 -0.72069,-0.27898 0.72069,-0.27897 1.30189,-0.76718 z m 4.90534,-3.76619 q -0.23248,-0.0465 -0.81368,-0.13948 l -0.44171,-0.0697 -0.46496,-0.0697 q -1.06941,-0.23248 -1.58087,-0.65095 -0.11624,-0.11624 -0.30223,-0.0465 -0.093,-0.44172 -0.30222,-1.06942 l -0.0697,-0.25572 -0.093,-0.27898 q 0.37197,0.32547 1.04616,0.55795 0.23249,0.093 0.55796,0.18599 l 0.25573,0.0697 0.25573,0.0697 q 0.34872,0.093 0.92992,0.20923 l 0.48821,0.093 0.51145,0.11624 q 1.2089,0.23248 1.8366,0.60445 0.16274,0.67419 0.23248,1.18565 -1.13915,-0.32547 -2.04583,-0.51146 z m 2.02258,3.48721 q -0.20923,1.04616 -0.74393,1.7901 -1.81335,-0.41846 -2.83627,-0.86018 l -0.5812,-0.25572 -0.60445,-0.23248 q -0.11624,-0.0465 -0.37197,-0.093 l -0.25573,-0.0465 -0.23248,-0.0465 q -0.65094,-0.16274 -0.90667,-0.37197 l 0.0697,-0.0697 0.0697,-0.0697 q 0.55795,-0.69744 0.81368,-1.39488 0.30222,0.20923 0.97642,0.32547 l 0.51146,0.093 q 0.30222,0.0465 0.44171,0.11624 l 0.92992,0.30222 0.90667,0.30222 q 1.04617,0.32548 1.81335,0.51146 z m -3.23148,-1.60411 q -0.51145,-0.18599 -0.83693,-0.25573 -0.0697,-0.0233 -0.30222,-0.0465 l -0.20923,-0.0465 -0.20924,-0.0233 q -0.5347,-0.093 -0.60445,-0.25573 l -0.0232,-0.0465 q 0.093,-0.67419 -0.0465,-1.53437 0.44171,0.30223 1.1624,0.46496 l 0.60445,0.11624 0.6277,0.11624 q 1.62736,0.32548 3.16174,0.79044 0.093,0.95317 0,1.72035 -0.51146,-0.11624 -1.23215,-0.34872 l -1.2554,-0.37197 -0.83693,-0.27897 z m -3.46396,-6.18399 q 0.53471,0.20924 1.55762,0.30223 l 0.81368,0.0697 q 0.46497,0.0465 0.79044,0.11624 0.5812,0.11624 1.37163,0.44172 l 0.6742,0.27897 0.65094,0.27898 q 0.27898,0.81368 0.44172,1.39488 -0.39522,-0.13949 -0.99967,-0.25573 l -0.51146,-0.11624 -0.48821,-0.093 q -0.13949,-0.0233 -0.41846,-0.093 l -0.25573,-0.0465 -0.25573,-0.0465 q -0.6277,-0.13949 -1.06941,-0.27898 -1.30189,-0.39522 -1.62736,-1.02291 -0.11624,-0.23249 -0.37197,-0.093 l -0.30223,-0.83693 z m -0.79043,-2.06907 q 0.13949,0.0697 0.41846,0.25572 l 0.20924,0.13949 q 0.093,0.0697 0.16273,0.11624 0.5812,0.32548 1.02292,0.41847 l 2.06907,0.39522 2.09233,0.44171 0.37197,0.95317 q -0.51146,-0.20923 -1.27864,-0.46496 -0.27898,-0.093 -0.51146,-0.16274 -0.20923,-0.0697 -0.23248,-0.0697 -0.34872,-0.0697 -0.86018,-0.16274 l -0.86018,-0.11624 q -0.13949,-0.0232 -0.41846,-0.0465 l -0.51146,-0.0697 q -0.65095,-0.0697 -0.88343,-0.20923 -0.11624,-0.0465 -0.23248,0 l -0.55795,-1.41813 z m -0.51146,-1.2089 -0.25573,-0.53471 q 0.23248,0.0232 0.60445,0.0465 l 0.27898,0.0232 0.30222,0.0232 q 2.90601,0.30223 4.46363,0.95317 0.46496,0.95317 0.81368,1.7901 l -1.69711,-0.39521 q -0.95317,-0.20923 -1.6971,-0.32547 -0.6742,-0.11625 -1.72036,-0.79044 -0.39522,-0.25573 -0.83693,-0.25573 l -0.0233,0.0233 -0.23248,-0.55795 z m -1.23215,-2.69678 q 0.60445,0.20924 1.55762,0.27898 1.46463,0.093 2.34806,0.30222 l 0.41846,0.093 0.39522,0.13948 q 0.48821,0.13949 0.79043,0.18599 0.44172,0.81368 0.74394,1.41813 -1.25539,-0.46496 -2.4178,-0.6277 -0.18598,-0.0232 -0.62769,-0.0232 l -0.41847,0 -0.44171,0 q -1.1624,-0.0465 -1.65061,-0.25573 l -0.69745,-1.51113 z m -1.37163,-2.9525 0.0697,0.0232 q 0.18599,0.0232 0.51146,0.30222 l 0.27898,0.20924 q 0.13949,0.11624 0.25573,0.16273 0.25572,0.093 0.72069,0.16274 l 0.37196,0.0232 0.37197,0.0697 q 0.72069,0.13949 1.65062,0.48821 l 0.81368,0.30222 0.79043,0.30223 0.0233,0 q 0.37197,0.67419 0.69744,1.27864 l -0.5812,-0.13949 -0.5812,-0.16273 q -0.74394,-0.20924 -1.1624,-0.25573 l -0.81369,-0.093 -0.83693,-0.0465 q -0.97641,-0.11624 -1.55762,-0.44171 l -1.02291,-2.18532 z m -0.18599,-0.39522 q -0.44171,-0.97642 -0.99966,-2.25506 0.51146,0.30223 1.25539,0.5812 l 0.65095,0.23248 q 0.23248,0.093 0.6277,0.20924 0.86017,0.25572 1.92959,1.04616 0.62769,0.46496 1.06941,0.46496 0.13948,0 0.20923,-0.11624 0.25573,0.46496 0.41846,0.72069 0.23248,0.41846 0.44172,0.76718 -1.85985,-0.72068 -2.88276,-0.92992 l -0.44172,-0.0697 -0.41846,-0.11624 q -0.46496,-0.11624 -0.79043,-0.34872 -0.53471,-0.32548 -0.81369,-0.34872 -0.18598,-0.0233 -0.25573,0.16273 z m 4.46363,-0.32547 q -0.27898,-0.0233 -0.6277,-0.30222 l -0.27897,-0.23249 -0.25573,-0.20923 q -0.53471,-0.34872 -1.30189,-0.6277 l -0.51146,-0.18598 -0.55795,-0.18598 q -0.69744,-0.23248 -1.13916,-0.44172 l 0.6277,0.11624 0.6277,0.093 q 0.74394,0.13948 1.25539,0.34872 0.11624,0.0465 0.30223,0.16273 l 0.34872,0.20923 q 0.46496,0.25573 0.74394,0.32548 0.13948,0.11624 0.30222,0.13949 0.13949,0.25572 0.46496,0.79043 z m -3.04549,-4.51012 q 0.34872,0.16273 0.97641,0.37197 l 0.46497,0.16273 q 0.27897,0.0697 0.44171,0.13949 0.69744,0.30223 1.62736,0.55795 l 0.81368,0.20924 0.81369,0.23248 q -1.60412,0.20923 -2.37131,0.67419 -0.20923,-0.0465 -0.39521,0.0465 l -0.0232,-0.0232 q -0.18598,-0.0697 -0.34872,-0.18599 l -0.25573,-0.16273 -0.27898,-0.13949 q -0.30222,-0.13949 -0.79043,-0.27898 l -0.41847,-0.093 -0.39521,-0.11624 q -0.32547,-0.093 -0.95317,-0.18598 l -0.46496,-0.0697 -0.48821,-0.093 q -0.25573,-0.093 -0.65095,-0.23248 1.11591,-0.27898 2.69678,-0.81368 z m 1.81334,-0.46496 q 0.34873,0.32547 0.95317,0.5812 0.41847,0.18598 0.99967,0.34872 0.34872,0.093 0.83693,0.30222 l 0.39522,0.18599 0.39522,0.16273 -0.6277,-0.13948 -0.6277,-0.16274 q -0.76719,-0.16274 -1.27864,-0.37197 l -0.79044,-0.32547 -0.81368,-0.30223 -0.27898,-0.093 0.83693,-0.18598 z m 4.76586,1.95283 -0.88343,0.093 q 0.0465,-0.093 0.0232,-0.20923 -0.0232,-0.11624 -0.13949,-0.18598 l 0.16274,0.0465 0.13948,0.0465 0.69745,0.20923 z m 6.71868,6.20723 q -0.13948,1.39489 -0.18598,2.62703 -0.79043,-1.51112 -1.55762,-3.51045 l 0.46496,0.18598 0.44171,0.18599 q 0.48821,0.25573 0.83693,0.51145 z m -0.88342,-1.18565 q -0.0232,-0.0233 -0.20923,-0.0697 l -0.16274,-0.0697 -0.18599,-0.0465 q -0.4882,-0.18599 -0.62769,-0.30223 l -0.0697,-0.16273 q 0,-0.11624 -0.0697,-0.18599 l -0.25573,-0.5812 -0.27898,-0.5812 -0.5347,-1.18565 q 0.5347,0.37197 1.25539,0.81368 l 0.6277,0.37197 0.65095,0.34872 q 0.18598,0.11624 0.48821,0.34872 l 0.25572,0.20923 0.23248,0.18599 -0.16273,1.41813 q -0.44171,-0.30222 -0.95317,-0.51146 z m -2.999,-5.83526 q 1.32514,1.2554 2.62703,1.90634 l 0.41846,0.18599 0.41847,0.16273 q 0.55795,0.23248 0.83693,0.37197 l 0.13949,0.093 -0.23248,1.48788 q -0.13949,-0.11624 -0.20924,-0.16274 -0.18598,-0.16273 -0.51145,-0.32547 l -0.53471,-0.30222 -1.04616,-0.6277 q -0.60445,-0.37197 -1.02291,-0.6742 -0.13949,-0.093 -0.25573,-0.0232 -0.11624,0.0697 -0.16274,0.20923 -0.34872,-0.88343 -0.46496,-1.58087 l 0,-0.72069 z m 0,-2.48754 0.16274,0.0697 q -0.16274,0.0697 -0.16274,0.25573 0,0.41847 0.39522,0.83693 0.16273,0.16274 0.37196,0.32547 0.16274,0.11624 0.39522,0.25573 0.32547,0.18599 0.92992,0.44172 l 0.48821,0.20923 q 0.25573,0.11624 0.46496,0.23248 0.55796,0.30222 1.34839,0.88343 0.16274,0.093 0.30223,0 l -0.16274,1.06941 -0.093,-0.0465 q -0.25573,-0.13949 -0.74394,-0.32547 l -0.39522,-0.16274 -0.37197,-0.16274 q -1.27864,-0.62769 -2.58053,-1.85984 -0.16274,-0.16274 -0.34872,-0.0465 l 0,-1.97608 z m 3.46396,1.48787 0.41846,0.093 q 0.51146,0.11624 0.79044,0.30222 0.093,0.0697 0.13949,0.13949 l 0.11624,0.11624 -0.16274,0.92992 -0.0697,-0.0697 q -1.18565,-0.83693 -1.97609,-1.1624 l -0.093,-0.0232 -0.13949,-0.0697 q -0.16274,-0.0465 -0.30222,-0.11624 -0.39522,-0.16273 -0.69745,-0.34872 -0.90667,-0.48821 -0.90667,-0.95317 l 0,-0.0465 0.60445,0.30222 0.6277,0.30222 q 0.69744,0.32548 1.25539,0.48821 l 0.39522,0.11624 z m -0.16274,-2.41779 q 0.16274,0.37197 0.72069,0.69744 0.18599,0.11624 0.48821,0.25573 l 0.23248,0.11624 0.20923,0.11624 0.34873,0.18598 0.37196,0.16274 q 0.41847,0.23248 0.6742,0.39522 l -0.13949,0.0232 q -0.27898,-0.25573 -0.6277,-0.0465 l -0.093,0.0697 q -0.18598,-0.13949 -0.37197,-0.25573 -0.32547,-0.16273 -0.76718,-0.30222 l -0.39522,-0.093 -0.39522,-0.11624 q -0.72069,-0.18599 -2.06908,-0.86018 1.18566,-0.25573 1.81335,-0.34872 z m 1.85985,0.0232 q 0.72069,0.16274 1.69711,0.6277 l 0.81368,0.41847 0.79043,0.39521 q 0.18599,0.093 0.92992,0.39522 l -0.60445,-0.0233 q -0.37196,-0.0232 -0.55795,0 -0.44171,0 -1.02291,0.0465 -0.093,-0.0697 -0.25573,-0.20923 l -0.11624,-0.093 -0.093,-0.093 q -0.46497,-0.32547 -0.76719,-0.48821 l -0.5812,-0.25573 q -0.32547,-0.16273 -0.53471,-0.30222 -0.0697,-0.0465 -0.16273,-0.093 l -0.23248,-0.11624 q -0.27898,-0.16274 -0.44172,-0.27898 0.65095,-0.0233 1.13916,0.0697 z m 6.55595,1.55762 q -0.23248,-0.32547 -0.5812,-0.16273 -0.6277,-0.25573 -1.48788,-0.69744 l -0.72069,-0.37197 -0.72069,-0.39522 q -1.7901,-0.90667 -3.02224,-1.18565 -0.99967,-0.23248 -2.72003,0.11624 l -0.72069,0.16274 -0.69744,0.16273 q -0.86018,0.20924 -1.34839,0.30223 l -0.0465,0 -0.0233,0.0232 -0.0232,-0.0232 q -0.23248,-0.0465 -0.46496,0.0697 -0.23248,0.11624 -0.25573,0.34872 l -0.0465,0.13949 0,0.0697 0,0.0465 0,0.0232 0,3.16173 q -0.23248,-0.093 -0.39522,-0.0232 -0.65095,-0.18599 -1.44138,-0.48821 -0.53471,-0.20924 -1.39488,-0.5812 -0.20924,-0.093 -0.6277,-0.13949 l -0.32547,-0.0465 -0.30223,-0.093 q -0.37197,-0.11624 -0.97642,-0.51146 0.0465,-0.32547 -0.23248,-0.5347 -0.27897,-0.20924 -0.55795,-0.093 -0.48821,-0.093 -0.6277,0.27898 -0.18598,0.0465 -0.37197,0.0697 -0.18598,0.0465 -0.20923,0.0465 -0.37197,0.093 -0.90667,0.30223 l -0.90668,0.30222 q -1.46463,0.48821 -2.85951,0.76719 -0.20923,-0.0465 -0.39522,0.0697 l -0.25572,0.0465 q -0.53471,0.0697 -0.41847,0.60445 0.11624,0.51145 0.6277,0.51145 0.0465,0.20924 0.16273,0.32548 0.74394,1.7901 2.04583,4.53337 l 1.06941,2.23181 1.06941,2.25506 q 1.69711,3.78944 2.53404,6.92792 0.69744,2.65028 -1.2089,3.95217 -1.53437,1.06941 -4.41713,1.09266 -0.51145,0 -0.55795,0.53471 -0.0465,0.51145 0.44171,0.60445 l 0.0697,0.81368 q 0.0465,0.48821 0.0465,0.79043 l 0.0232,0.44171 0.0697,0.44172 q 0.0697,0.5812 0.0697,0.88342 0,0.39522 0.32547,0.51146 0.32547,0.13949 0.60445,-0.0697 l 0.83693,0.39521 0.81368,0.37197 q 0.97642,0.46496 1.55762,0.92993 2.39455,1.81334 3.74294,2.46429 0.27898,0.11624 0.53471,0.0232 0.30222,0.13949 0.55795,-0.0232 0.51146,-0.32547 1.55762,-0.55795 l 0.41846,-0.11624 0.41847,-0.093 q 0.48821,-0.11624 0.81368,-0.23248 2.06908,-0.81368 3.81268,-2.02258 3.0455,-2.06908 4.69611,-6.18398 0.86018,-2.11557 1.34839,-5.30056 l 0.18598,-1.34839 0.18599,-1.37163 q 0.23248,-1.76685 0.39521,-2.69677 l 0.23248,-1.62737 0.23248,-1.60411 q 0.30223,-1.95284 0.55796,-3.20824 0.11624,-0.5347 0.20923,-1.27864 l 0.18598,-1.30189 q 0.20924,-1.69711 0.44172,-2.58053 0.16273,-0.20924 0.11624,-0.48821 0.093,-0.34872 -0.16274,-0.58121 -0.25573,-0.18598 -0.5812,-0.11624 z m -27.89767,1.8366 q -0.30222,0 -0.51146,0.0233 -0.0697,0 -0.23248,0.0697 l -0.23248,0.0697 q -0.093,-0.11624 -0.25572,-0.11624 -0.16274,-0.0232 -0.25573,0.11624 l -0.13949,0.16273 q -0.093,0.11624 -0.0232,0.25573 0.0697,0.13949 0.20923,0.18599 0.18599,0.0465 0.41847,0 l 0.20923,-0.0465 0.20923,-0.0697 q 0.20924,-0.0697 0.55796,-0.0697 l 0.27897,0 0.27898,0.0232 q 0.27898,0 0.27898,-0.30222 0,-0.27898 -0.27898,-0.27898 l -0.51146,-0.0233 z m 0.11624,-2.92925 q -0.13949,0.0232 -0.32547,-0.0232 l -0.34872,-0.0697 q -0.44171,-0.11624 -0.69744,-0.093 -0.25573,0.0232 -0.27898,0.32547 0,0.30223 0.27898,0.25573 0.25573,-0.0232 0.69744,0.093 l 0.32547,0.093 q 0.20923,0.0232 0.34872,0.0232 0.30223,-0.0232 0.30223,-0.32548 0,-0.30222 -0.30223,-0.27897 z m 2.04583,-0.58121 q -0.13949,-0.0465 -0.30222,-0.23248 l -0.13949,-0.16273 -0.11624,-0.13949 q -0.25573,-0.34872 -0.44172,-0.69744 -0.13948,-0.23248 -0.39521,-0.093 -0.25573,0.13948 -0.11624,0.39521 0.13949,0.25573 0.25573,0.44172 0.16273,0.25572 0.30222,0.44171 0.39522,0.48821 0.79043,0.6277 0.27898,0.093 0.34873,-0.18599 0.0697,-0.27898 -0.18599,-0.39522 z m 26.52603,-3.04549 q -0.48821,0.5347 -0.81368,1.06941 -0.23248,0.41846 -0.25573,1.09266 0,0.13949 0.093,0.20923 0.093,0.0697 0.20924,0.0697 0.11624,0 0.20923,-0.0697 0.093,-0.0697 0.093,-0.20923 0,-0.53471 0.23248,-0.88343 0.27898,-0.46496 0.65095,-0.86018 0.093,-0.093 0.0697,-0.23248 0,-0.093 -0.093,-0.18598 -0.0697,-0.093 -0.18598,-0.093 -0.11624,0 -0.20924,0.093 z m 2.65028,2.27831 q -0.55795,-0.093 -1.02291,0.37197 -0.0465,0.0465 -0.16274,0.16273 l -0.16274,0.23248 q -0.25572,0.23248 -0.41846,0.20924 -0.27898,-0.0465 -0.37197,0.23248 -0.0697,0.27897 0.20923,0.32547 0.48821,0.11624 0.95317,-0.34872 l 0.0697,-0.093 0.093,-0.093 0.18598,-0.20923 q 0.25573,-0.25573 0.46497,-0.23248 0.11624,0.0233 0.23248,-0.0465 0.093,-0.0697 0.11624,-0.18599 0.0465,-0.11624 -0.0232,-0.20923 -0.0465,-0.093 -0.16274,-0.11624 z m 0.0465,4.90534 -0.41847,0.0697 q -0.60445,0.093 -0.88342,0.093 -0.30223,0.0232 -0.30223,0.30223 0,0.30222 0.30223,0.30222 0.27897,-0.0232 0.88342,-0.11624 l 0.41847,-0.0465 0.44171,-0.0465 q 0.30223,0 0.30223,-0.30222 0,-0.30223 -0.30223,-0.27898 l -0.44171,0.0232 z"
         id="path4177"
         inkscape:connector-curvature="0" />
    </g>
  </g>
</svg>
